<?xml version="1.0" encoding="utf-8"?>
<!-- Generator: Adobe Illustrator 19.1.0, SVG Export Plug-In . SVG Version: 6.00 Build 0)  -->
<svg version="1.1" id="Layer_1" xmlns="http://www.w3.org/2000/svg" xmlns:xlink="http://www.w3.org/1999/xlink" x="0px" y="0px"
	 viewBox="0 0 206.2 240.2" style="enable-background:new 0 0 206.2 240.2;" xml:space="preserve">
<style type="text/css">
	.st0{fill:#074652;}
	.st1{fill:#0A0C0C;}
	.st2{fill:#50B79C;}
	.st3{fill:#0C9E6D;}
	.st4{fill:#E8552A;}
	.st5{fill:#E12024;}
	.st6{fill:#0D9E6C;}
	.st7{fill:#090C0C;}
	.st8{fill:#E21E24;}
	.st9{fill:#F6A523;}
	.st10{fill:#EE8025;}
</style>
<g>
	<g>
		<path class="st0" d="M138.2,42.5L138.2,42.5L138.2,42.5c-10.5-6.8-23-10.8-36.5-10.8H34.6v68.2l0,0v66.1h67.1
			c13.5,0,26-4,36.5-10.8c18.4-12,30.6-32.7,30.6-56.3C168.8,75.2,156.6,54.4,138.2,42.5z"/>
		<g>
			<path class="st1" d="M34.6,96.6c16.6-18.2,14.3-28,14-29.1c-4.8-29.9,5.6-34.8,6-35c0.1,0,0.1-0.1,0.2-0.1c0.3-0.2,0.7-0.4,1-0.7
				H52c-3.3,2.7-9.5,11.3-5.5,36.2c0,0,0,0.1,0,0.2c0,0.1,2.5,8.8-12,25.6V96.6z"/>
			<path class="st1" d="M84.9,37.7C92.7,49,98.8,52,102.6,52.4c3.5,0.4,5.6-1,6.1-1.5c8.8-6.3,3.5-16.2,2.2-18.3
				c-0.1-0.1-0.1-0.2-0.2-0.4c-0.8-0.1-1.5-0.2-2.3-0.3c0.2,0.5,0.4,1,0.6,1.5c0,0.1,0.1,0.2,0.1,0.2c1,1.7,5.8,10.3-1.7,15.6
				c-0.4,0.3-2,1.4-4.7,1.1c-3.4-0.4-9-3.1-16.3-13.8c0-0.1-1.8-2.4-4.8-4.9h-3.4C82.5,34.4,84.9,37.7,84.9,37.7z"/>
			<path class="st1" d="M130.8,138.4c-37.3,8.6-57.2,18.2-67.2,24.8c-1.4,0.9-2.7,1.8-3.8,2.7h1.7c0.8-0.6,1.7-1.2,2.6-1.8
				c10-6.6,29.8-16.2,67-24.7c0.2-0.1,13.8-4.6,26.9-4.1c0.2-0.3,0.4-0.6,0.6-1C145.1,133.7,131,138.4,130.8,138.4z"/>
			<path class="st1" d="M55.1,73.2c1.6-19.5,5.4-25.1,10.7-27.5c11.5-6.4,18.2,3.6,19,4.8c12,16.8,31,8.3,31.2,8.2
				c8.7-5,11.3-13.8,11.6-21.8c-0.3-0.1-0.7-0.3-1-0.4c-0.3,10.1-4,17.2-11,21.3c-0.2,0.1-18.3,8.3-30-7.9
				c-0.8-1.2-7.9-11.9-20.2-5.1c-5.6,2.6-9.6,8.4-11.2,28.3c-0.2,4-6.2,18.9-19.5,34.3v1.5C48.1,93.7,54.7,78.6,55.1,73.2z"/>
			<path class="st1" d="M149.2,146.2c-15.5,0.5-32.8,7.3-34.1,7.8c-8.8,2.4-18.4,6.7-27.9,11.9h4.2c8.3-4.3,16.6-7.9,24.2-10
				c0,0,0.1,0,0.1,0c0.2-0.1,16.3-6.5,31.2-7.6C147.7,147.6,148.5,146.9,149.2,146.2z"/>
			<path class="st1" d="M162.5,125.8c-14.2,0.8-28.4,3.5-28.5,3.5c-31.3,3.6-56.9,14.5-72.9,23c-9.9,5.3-17.4,10.3-22.1,13.7h1.7
				c4.7-3.3,11.8-7.9,20.9-12.8c15.9-8.4,41.4-19.3,72.6-22.9c0.1,0,14.2-2.7,28.4-3.5c0.1,0,0.1,0,0.2,0c0.2-0.3,0.3-0.7,0.5-1
				C162.9,125.7,162.7,125.7,162.5,125.8z"/>
			<path class="st1" d="M36,114.4c-0.1,0.1-0.6,0.6-1.4,1.5v1.5c1.3-1.4,2-2.2,2.1-2.3c18.2-17.2,25.3-27.6,28-33.3
				c2.8-5.9,3-7.2,2.9-8.8c0-12.6,2-15.4,4.2-16.5c5.5-2.9,7.9,0,9.7,2.1c0.5,0.6,0.9,1.1,1.3,1.4c4.9,4.1,11.1,7.9,22.7,7.7
				c11.2-0.2,23-8,27-15.2c2.6-4.6,2.7-9.1,2.3-12c-0.4-0.2-0.7-0.4-1.1-0.6c0.4,2.7,0.6,7.4-2,12.1c-3.9,6.9-15.3,14.5-26.1,14.7
				c-11.3,0.2-17.2-3.4-22.1-7.4c-0.3-0.3-0.7-0.7-1.2-1.2c-1.8-2.1-4.7-5.6-10.9-2.3c-2.3,1.2-4.7,3.6-4.7,17.4
				c0.1,1.4-0.1,2.7-2.8,8.3C61.1,87,54.1,97.2,36,114.4z"/>
			<path class="st1" d="M168.4,106.4c0-0.3,0.1-0.7,0.1-1c-22.9-1.1-48.8,5.4-68.6,12c-28.2,9.4-50.2,20.9-50.5,21
				c-6.1,3.7-11,6.1-14.8,7.5v1.1c3.9-1.4,9-3.8,15.3-7.7c0.2-0.1,22.2-11.6,50.3-21C119.9,111.8,145.6,105.3,168.4,106.4z"/>
			<path class="st1" d="M34.6,132.6v1.1c1.2-0.5,2.1-0.8,2.4-0.8c0,0,0.1,0,0.1,0C57.2,122.1,77,91.7,77.2,91.4
				c3.7-8.5,7.2-11.3,9.6-12.1c2-0.7,3.4-0.1,3.4,0c5.5,2.4,12.2,0.1,12.5,0c29.4-7.1,41.2-18.1,45.9-26.1c0.3-0.5,0.6-1,0.8-1.5
				c-0.2-0.3-0.5-0.5-0.8-0.7c-0.3,0.6-0.6,1.2-0.9,1.8c-4.6,7.8-16.2,18.7-45.3,25.7c-0.1,0-6.7,2.2-11.8,0c-0.2-0.1-1.8-0.8-4.2,0
				c-2.5,0.9-6.4,3.8-10.1,12.6c-0.2,0.3-19.8,30.4-39.6,41C36.4,132,35.6,132.2,34.6,132.6z"/>
			<path class="st1" d="M105.4,90c-2.1,0.9-4.4,0.9-6.9,0.9c-6.1,0-13,0-19.6,12.6c-1,1.4-5.8,8.3-3.7,11.6c4.1,6.2,13,1.9,24.3-3.6
				c9.8-4.8,21-10.3,31.7-10c0.1,0,12.7,0.8,37.5-6.3c0-0.3,0-0.7-0.1-1c-24.7,7.2-37.2,6.3-37.4,6.3c-11-0.2-22.2,5.3-32.2,10.1
				c-10.8,5.3-19.4,9.5-23,4c-1.5-2.3,1.6-7.7,3.6-10.5c0,0,0-0.1,0.1-0.1c6.4-12.1,12.9-12.1,18.7-12.1c2.6,0,5,0,7.3-1
				C133.7,79.2,147.8,67,155,58c-0.2-0.3-0.4-0.5-0.6-0.8C147.4,66,133.4,78.2,105.4,90z"/>
			<path class="st1" d="M73,76.7c0.3,0,0.7-0.2,0.8-0.5c0.3-0.5,0.2-1.1-0.3-1.4c-0.5-0.3-1.1-0.2-1.4,0.3c-0.3,0.5-0.2,1.1,0.3,1.4
				C72.7,76.7,72.8,76.7,73,76.7z"/>
			<path class="st1" d="M76.1,72.9c0.3-0.4,0.2-1.1-0.2-1.4c-0.4-0.3-1.1-0.2-1.4,0.2c-0.3,0.4-0.2,1.1,0.2,1.4
				c0.2,0.1,0.4,0.2,0.6,0.2C75.6,73.3,75.9,73.2,76.1,72.9z"/>
			<path class="st1" d="M85,67.9c0.3,0,0.7-0.2,0.9-0.5c0.3-0.5,0.1-1.1-0.4-1.4c-0.5-0.3-1.1-0.1-1.4,0.4c-0.3,0.5-0.1,1.1,0.4,1.4
				C84.6,67.9,84.8,67.9,85,67.9z"/>
			<path class="st1" d="M81.1,67.7c0.1,0,0.3,0,0.4-0.1c0.5-0.2,0.7-0.8,0.5-1.3c-0.2-0.5-0.8-0.7-1.3-0.5c-0.5,0.2-0.7,0.8-0.5,1.3
				C80.3,67.5,80.7,67.7,81.1,67.7z"/>
			<path class="st1" d="M99.7,74.3c0.5,0,0.9-0.4,1-0.9c0.1-0.6-0.3-1.1-0.8-1.1c-0.5-0.1-1.1,0.3-1.1,0.8c-0.1,0.6,0.3,1.1,0.9,1.1
				C99.6,74.3,99.7,74.3,99.7,74.3z"/>
			<path class="st1" d="M95.8,73.5c0.4,0,0.8-0.3,1-0.7c0.1-0.5-0.2-1.1-0.7-1.2c-0.5-0.1-1.1,0.2-1.2,0.7c-0.1,0.5,0.2,1.1,0.7,1.2
				C95.6,73.5,95.7,73.5,95.8,73.5z"/>
			<path class="st1" d="M51.3,110.4c0.4-0.4,0.4-1-0.1-1.4c-0.4-0.4-1-0.4-1.4,0.1c-0.4,0.4-0.4,1,0,1.4c0.2,0.2,0.4,0.3,0.7,0.3
				C50.9,110.7,51.1,110.6,51.3,110.4z"/>
			<path class="st1" d="M88.3,70.2c0.3,0,0.7-0.2,0.9-0.5c0.3-0.5,0.1-1.1-0.3-1.4c-0.5-0.3-1.1-0.1-1.4,0.3
				c-0.3,0.5-0.1,1.1,0.3,1.4C88,70.2,88.1,70.2,88.3,70.2z"/>
			<path class="st1" d="M78.6,69.9c0.4-0.4,0.4-1,0-1.4c-0.4-0.4-1-0.4-1.4,0c-0.4,0.4-0.4,1,0,1.4c0.2,0.2,0.4,0.3,0.7,0.3
				C78.1,70.2,78.4,70.1,78.6,69.9z"/>
			<path class="st1" d="M56.6,104c0.3-0.4,0.2-1.1-0.2-1.4c-0.5-0.3-1.1-0.2-1.4,0.2c-0.3,0.5-0.2,1.1,0.2,1.4
				c0.2,0.1,0.4,0.2,0.6,0.2C56.1,104.4,56.4,104.3,56.6,104z"/>
			<path class="st1" d="M59,100.7c0.3-0.5,0.2-1.1-0.3-1.4c-0.5-0.3-1.1-0.2-1.4,0.3c-0.3,0.4-0.2,1.1,0.3,1.4
				c0.2,0.1,0.4,0.2,0.6,0.2C58.5,101.1,58.8,101,59,100.7z"/>
			<path class="st1" d="M60.4,97.7c0.3,0,0.6-0.2,0.8-0.5c0.3-0.5,0.2-1.1-0.3-1.4c-0.5-0.3-1.1-0.2-1.4,0.3
				c-0.3,0.5-0.2,1.1,0.3,1.4C60.1,97.7,60.2,97.7,60.4,97.7z"/>
			<path class="st1" d="M70.9,80.2c0.3,0,0.7-0.2,0.9-0.5c0.3-0.5,0.1-1.1-0.3-1.4c-0.5-0.3-1.1-0.1-1.4,0.4
				c-0.3,0.5-0.1,1.1,0.3,1.4C70.5,80.2,70.7,80.2,70.9,80.2z"/>
			<path class="st1" d="M54,107.3c0.4-0.4,0.3-1.1-0.1-1.4c-0.4-0.4-1-0.3-1.4,0.1c-0.4,0.4-0.3,1.1,0.1,1.4
				c0.2,0.2,0.4,0.2,0.6,0.2C53.6,107.6,53.8,107.5,54,107.3z"/>
			<path class="st1" d="M68.8,83.7c0.3,0,0.7-0.2,0.9-0.5c0.3-0.5,0.1-1.1-0.4-1.4c-0.5-0.3-1.1-0.1-1.4,0.4
				c-0.3,0.5-0.1,1.1,0.4,1.4C68.5,83.7,68.7,83.7,68.8,83.7z"/>
			<path class="st1" d="M66.8,87.2c0.4,0,0.7-0.2,0.9-0.5c0.3-0.5,0.1-1.1-0.4-1.4c-0.5-0.3-1.1-0.1-1.4,0.4
				c-0.3,0.5-0.1,1.1,0.4,1.4C66.4,87.2,66.6,87.2,66.8,87.2z"/>
			<path class="st1" d="M62.6,94.3c0.3,0,0.7-0.2,0.8-0.5c0.3-0.5,0.2-1.1-0.3-1.4c-0.5-0.3-1.1-0.1-1.4,0.3
				c-0.3,0.5-0.1,1.1,0.3,1.4C62.2,94.2,62.4,94.3,62.6,94.3z"/>
			<path class="st1" d="M64.7,90.8c0.3,0,0.7-0.2,0.9-0.5c0.3-0.5,0.1-1.1-0.4-1.4c-0.5-0.3-1.1-0.1-1.4,0.3
				c-0.3,0.5-0.1,1.1,0.3,1.4C64.4,90.7,64.5,90.8,64.7,90.8z"/>
			<path class="st1" d="M91.9,72.1c0.4,0,0.8-0.2,0.9-0.6c0.2-0.5,0-1.1-0.5-1.3c-0.5-0.2-1.1,0-1.3,0.5c-0.2,0.5,0,1.1,0.5,1.3
				C91.7,72.1,91.8,72.1,91.9,72.1z"/>
			<path class="st1" d="M141,44.4c-0.2-0.1-0.4-0.3-0.6-0.4C140.5,44.2,140.7,44.3,141,44.4z"/>
			<path class="st1" d="M141.6,47.6c0.1-0.5-0.3-1.1-0.8-1.2c-0.5-0.1-1.1,0.3-1.1,0.8c-0.1,0.5,0.3,1.1,0.8,1.1c0.1,0,0.1,0,0.2,0
				C141.1,48.5,141.5,48.1,141.6,47.6z"/>
			<path class="st1" d="M135.2,59.4c0.2,0.1,0.4,0.2,0.6,0.2c0.3,0,0.6-0.1,0.8-0.4c0.3-0.5,0.2-1.1-0.2-1.4
				c-0.5-0.3-1.1-0.2-1.4,0.2C134.7,58.4,134.8,59,135.2,59.4z"/>
			<path class="st1" d="M137.1,54.7c-0.3,0.5-0.1,1.1,0.4,1.4c0.1,0.1,0.3,0.1,0.5,0.1c0.4,0,0.7-0.2,0.9-0.5
				c0.3-0.5,0.1-1.1-0.4-1.4C138,54,137.4,54.2,137.1,54.7z"/>
			<path class="st1" d="M139.6,52.4c0.4,0,0.8-0.3,0.9-0.7c0.2-0.5-0.1-1.1-0.6-1.3c-0.5-0.2-1.1,0.1-1.3,0.6
				c-0.2,0.5,0.1,1.1,0.6,1.3C139.4,52.4,139.5,52.4,139.6,52.4z"/>
			<path class="st1" d="M165.9,117.1c0,0.2,0.1,0.4,0.2,0.5c0.1-0.5,0.3-1,0.4-1.5C166.2,116.3,165.9,116.6,165.9,117.1z"/>
			<path class="st1" d="M162.9,118.3C162.9,118.3,162.9,118.2,162.9,118.3c0.6,0,1-0.5,1-1.1c0-0.5-0.5-1-1.1-0.9
				c-0.6,0-1,0.5-0.9,1.1C161.9,117.8,162.3,118.3,162.9,118.3z"/>
			<path class="st1" d="M34.9,122.7c-0.2,0.2-0.3,0.4-0.3,0.6v0.2c0,0.2,0.1,0.4,0.2,0.6c0.2,0.2,0.5,0.3,0.8,0.3
				c0.2,0,0.5-0.1,0.7-0.2c0.4-0.4,0.5-1,0.1-1.4C35.9,122.4,35.3,122.3,34.9,122.7z"/>
			<path class="st1" d="M36.4,157.9c0.5-0.3,0.6-0.9,0.3-1.4c-0.3-0.5-0.9-0.6-1.4-0.3c-0.5,0.3-0.6,0.9-0.3,1.4
				c0.2,0.3,0.5,0.4,0.8,0.4C36.1,158.1,36.3,158,36.4,157.9z"/>
			<path class="st1" d="M108,74.6c0.6,0,1-0.5,0.9-1.1c0-0.6-0.5-1-1.1-0.9c-0.5,0.1-1,0.5-0.9,1.1C106.9,74.2,107.4,74.6,108,74.6
				C107.9,74.6,107.9,74.6,108,74.6z"/>
			<path class="st1" d="M112.1,74c0.5-0.1,0.9-0.6,0.8-1.2c-0.1-0.5-0.6-0.9-1.2-0.8s-0.9,0.6-0.8,1.2c0.1,0.5,0.5,0.8,1,0.8
				C112,74,112,74,112.1,74z"/>
			<path class="st1" d="M119.7,71.7c0.1,0,0.2,0,0.4-0.1c0.5-0.2,0.8-0.8,0.5-1.3c-0.2-0.5-0.8-0.8-1.3-0.5
				c-0.5,0.2-0.8,0.8-0.5,1.3C118.9,71.4,119.3,71.7,119.7,71.7z"/>
			<path class="st1" d="M133.9,62.4c0.4-0.4,0.4-1,0-1.4c-0.4-0.4-1-0.4-1.4,0s-0.4,1,0,1.4c0.2,0.2,0.4,0.3,0.7,0.3
				C133.4,62.7,133.7,62.6,133.9,62.4z"/>
			<path class="st1" d="M103.8,74.7c0.5,0,1-0.4,1-1c0-0.5-0.4-1-1-1c-0.5,0-1,0.4-1,1C102.8,74.2,103.2,74.7,103.8,74.7
				C103.8,74.7,103.8,74.7,103.8,74.7z"/>
			<path class="st1" d="M115.9,73c0.1,0,0.2,0,0.3,0c0.5-0.2,0.8-0.7,0.7-1.2c-0.2-0.5-0.7-0.8-1.2-0.7c-0.5,0.2-0.8,0.7-0.7,1.2
				C115,72.7,115.4,73,115.9,73z"/>
			<path class="st1" d="M130.9,63.8c-0.4-0.4-1-0.5-1.4-0.1c-0.4,0.4-0.5,1-0.1,1.4c0.2,0.2,0.5,0.4,0.8,0.4c0.2,0,0.5-0.1,0.6-0.2
				c0,0,0,0,0,0C131.2,64.9,131.3,64.2,130.9,63.8z"/>
			<path class="st1" d="M123.4,69.9c0.2,0,0.3,0,0.5-0.1c0,0,0,0,0,0c0.5-0.2,0.7-0.9,0.4-1.4c-0.3-0.5-0.9-0.7-1.4-0.4
				c-0.5,0.3-0.7,0.9-0.4,1.4C122.7,69.7,123,69.9,123.4,69.9z"/>
			<path class="st1" d="M126.9,67.9c0.2,0,0.4,0,0.6-0.2c0.5-0.3,0.6-0.9,0.3-1.4c-0.3-0.5-0.9-0.6-1.4-0.3
				c-0.5,0.3-0.6,0.9-0.3,1.4C126.3,67.7,126.6,67.9,126.9,67.9z"/>
			<path class="st1" d="M90.7,130.2c-0.5,0.2-0.8,0.7-0.6,1.3c0.1,0.4,0.5,0.7,1,0.7c0.1,0,0.2,0,0.3,0c0.5-0.2,0.8-0.7,0.6-1.3
				C91.8,130.3,91.2,130.1,90.7,130.2z"/>
			<path class="st1" d="M114.3,123.5c-0.5,0.1-0.9,0.7-0.7,1.2c0.1,0.5,0.5,0.8,1,0.8c0.1,0,0.2,0,0.2,0c0.5-0.1,0.9-0.7,0.7-1.2
				C115.4,123.7,114.8,123.4,114.3,123.5z"/>
			<path class="st1" d="M117.5,123.8c0.1,0.5,0.5,0.8,1,0.8c0.1,0,0.1,0,0.2,0c0.5-0.1,0.9-0.6,0.8-1.2s-0.7-0.9-1.2-0.8
				c0,0,0,0,0,0C117.8,122.7,117.4,123.2,117.5,123.8z"/>
			<path class="st1" d="M122.3,121.7c-0.5,0.1-0.9,0.7-0.8,1.2c0.1,0.5,0.5,0.8,1,0.8c0.1,0,0.1,0,0.2,0c0.5-0.1,0.9-0.6,0.8-1.2
				C123.4,121.9,122.8,121.6,122.3,121.7z"/>
			<path class="st1" d="M110.3,124.5c-0.5,0.1-0.9,0.7-0.7,1.2c0.1,0.5,0.5,0.8,1,0.8c0.1,0,0.2,0,0.2,0c0.5-0.1,0.9-0.7,0.7-1.2
				C111.4,124.7,110.9,124.3,110.3,124.5z"/>
			<path class="st1" d="M97.8,129c0.1,0.4,0.5,0.7,1,0.7c0.1,0,0.2,0,0.3,0c0.5-0.2,0.8-0.7,0.7-1.2c-0.2-0.5-0.7-0.8-1.2-0.7
				c0,0,0,0,0,0C98,127.9,97.7,128.5,97.8,129z"/>
			<path class="st1" d="M86.8,131.6c-0.5,0.2-0.8,0.8-0.6,1.3c0.2,0.4,0.5,0.7,0.9,0.7c0.1,0,0.2,0,0.3-0.1h0
				c0.5-0.2,0.8-0.8,0.6-1.3C87.9,131.7,87.4,131.4,86.8,131.6z"/>
			<path class="st1" d="M94.6,129c-0.5,0.2-0.8,0.7-0.7,1.3c0.1,0.4,0.5,0.7,1,0.7c0.1,0,0.2,0,0.3,0c0.5-0.2,0.8-0.7,0.7-1.3
				C95.7,129.1,95.1,128.8,94.6,129z"/>
			<path class="st1" d="M48.4,113.3c0.4-0.4,0.4-1,0.1-1.4c-0.4-0.4-1-0.4-1.4-0.1c-0.4,0.4-0.4,1-0.1,1.4c0.2,0.2,0.5,0.3,0.7,0.3
				C47.9,113.6,48.2,113.5,48.4,113.3z"/>
			<path class="st1" d="M102.4,126.6c-0.5,0.1-0.8,0.7-0.7,1.2c0.1,0.4,0.5,0.7,1,0.7c0.1,0,0.2,0,0.3,0c0.5-0.1,0.8-0.7,0.7-1.2
				C103.5,126.8,103,126.5,102.4,126.6z"/>
			<path class="st1" d="M106.4,125.5c-0.5,0.2-0.9,0.7-0.7,1.2c0.1,0.5,0.5,0.7,1,0.7c0.1,0,0.2,0,0.3,0c0.5-0.1,0.8-0.7,0.7-1.2
				C107.5,125.7,106.9,125.4,106.4,125.5z"/>
			<path class="st1" d="M149.7,118.4c0.1,0.5,0.5,0.9,1,0.9c0,0,0.1,0,0.1,0c0.5-0.1,0.9-0.6,0.9-1.1c-0.1-0.5-0.6-1-1.1-0.9
				C150,117.3,149.6,117.8,149.7,118.4z"/>
			<path class="st1" d="M125.5,122.1c0.1,0.5,0.5,0.8,1,0.8c0.1,0,0.1,0,0.2,0c0.5-0.1,0.9-0.6,0.8-1.2c-0.1-0.5-0.6-0.9-1.2-0.8
				C125.8,121,125.4,121.5,125.5,122.1z"/>
			<path class="st1" d="M153.7,118c0,0.5,0.5,0.9,1,0.9c0,0,0.1,0,0.1,0c0.5,0,1-0.5,0.9-1.1c0-0.6-0.5-1-1.1-0.9
				C154.1,116.9,153.7,117.4,153.7,118z"/>
			<path class="st1" d="M141.6,119.4c0.1,0.5,0.5,0.9,1,0.9c0.1,0,0.1,0,0.1,0c0.5-0.1,0.9-0.6,0.9-1.1c-0.1-0.5-0.6-0.9-1.1-0.9
				C141.9,118.3,141.5,118.8,141.6,119.4z"/>
			<path class="st1" d="M145.6,118.8c0.1,0.5,0.5,0.9,1,0.9c0,0,0.1,0,0.1,0c0.5-0.1,0.9-0.6,0.9-1.1c-0.1-0.5-0.6-0.9-1.1-0.9
				C146,117.8,145.6,118.3,145.6,118.8z"/>
			<path class="st1" d="M129.5,121.3c0.1,0.5,0.5,0.8,1,0.8c0.1,0,0.1,0,0.2,0c0.5-0.1,0.9-0.6,0.8-1.2c-0.1-0.5-0.6-0.9-1.2-0.8
				C129.8,120.2,129.4,120.8,129.5,121.3z"/>
			<path class="st1" d="M133.5,120.6c0.1,0.5,0.5,0.8,1,0.8c0.1,0,0.1,0,0.2,0c0.5-0.1,0.9-0.6,0.8-1.1c-0.1-0.5-0.6-0.9-1.1-0.8
				C133.8,119.5,133.4,120.1,133.5,120.6z"/>
			<path class="st1" d="M137.6,120c0.1,0.5,0.5,0.9,1,0.9c0.1,0,0.1,0,0.2,0c0.5-0.1,0.9-0.6,0.8-1.1c-0.1-0.5-0.6-0.9-1.1-0.8
				C137.8,118.9,137.5,119.4,137.6,120z"/>
			<path class="st1" d="M75.3,135.9c-0.5,0.2-0.8,0.8-0.6,1.3c0.2,0.4,0.5,0.6,0.9,0.6c0.1,0,0.2,0,0.4-0.1v0
				c0.5-0.2,0.8-0.8,0.6-1.3C76.4,135.9,75.9,135.7,75.3,135.9z"/>
			<path class="st1" d="M42.3,118.8c0.4-0.4,0.4-1,0.1-1.4c-0.4-0.4-1-0.4-1.4-0.1c-0.4,0.4-0.5,1-0.1,1.4c0.2,0.2,0.5,0.3,0.8,0.3
				C41.9,119,42.1,119,42.3,118.8z"/>
			<path class="st1" d="M52.9,145.7C52.9,145.7,52.9,145.7,52.9,145.7c-0.5,0.2-0.7,0.8-0.5,1.3c0.2,0.4,0.5,0.6,0.9,0.6
				c0.1,0,0.3,0,0.4-0.1c0.5-0.2,0.7-0.8,0.5-1.3C54,145.7,53.4,145.5,52.9,145.7z"/>
			<path class="st1" d="M83,132.9c-0.5,0.2-0.8,0.8-0.6,1.3c0.1,0.4,0.5,0.6,0.9,0.6c0.1,0,0.2,0,0.3-0.1c0.5-0.2,0.8-0.8,0.6-1.3
				C84.1,133,83.5,132.8,83,132.9z"/>
			<path class="st1" d="M45.4,116.1c0.4-0.4,0.4-1,0.1-1.4s-1-0.4-1.4-0.1c-0.4,0.4-0.4,1-0.1,1.4c0.2,0.2,0.5,0.3,0.7,0.3
				C44.9,116.3,45.2,116.2,45.4,116.1z"/>
			<path class="st1" d="M39.3,121.5c0.4-0.4,0.4-1,0.1-1.4c-0.4-0.4-1-0.5-1.4-0.1s-0.5,1-0.1,1.4c0.2,0.2,0.5,0.3,0.7,0.3
				C38.8,121.8,39.1,121.7,39.3,121.5z"/>
			<path class="st1" d="M42.1,151.7c-0.5,0.3-0.6,0.9-0.3,1.4c0.2,0.3,0.5,0.5,0.8,0.5c0.2,0,0.4,0,0.5-0.2c0.5-0.3,0.6-0.9,0.3-1.4
				C43.2,151.5,42.6,151.4,42.1,151.7z"/>
			<path class="st1" d="M49.2,147.5c-0.5,0.3-0.7,0.9-0.4,1.4c0.2,0.3,0.5,0.5,0.9,0.5c0.2,0,0.3,0,0.5-0.1c0.5-0.2,0.7-0.9,0.4-1.4
				C50.3,147.4,49.7,147.3,49.2,147.5z"/>
			<path class="st1" d="M45.6,149.5c-0.5,0.3-0.6,0.9-0.4,1.4c0.2,0.3,0.5,0.5,0.9,0.5c0.2,0,0.4,0,0.5-0.1c0.5-0.3,0.6-0.9,0.3-1.4
				C46.7,149.4,46.1,149.3,45.6,149.5z"/>
			<path class="st1" d="M64,140.6c-0.5,0.2-0.7,0.8-0.5,1.3c0.2,0.4,0.5,0.6,0.9,0.6c0.1,0,0.3,0,0.4-0.1c0.5-0.2,0.7-0.8,0.5-1.3
				C65.1,140.6,64.5,140.4,64,140.6z"/>
			<path class="st1" d="M56.6,144c-0.5,0.2-0.7,0.8-0.5,1.3c0.2,0.4,0.5,0.6,0.9,0.6c0.1,0,0.3,0,0.4-0.1c0.5-0.2,0.7-0.8,0.5-1.3
				C57.7,144,57.1,143.8,56.6,144z"/>
			<path class="st1" d="M157.8,117.6c0,0.5,0.5,0.9,1,0.9c0,0,0.1,0,0.1,0c0.6-0.1,1-0.5,0.9-1.1c0-0.5-0.5-1-1.1-0.9
				S157.7,117.1,157.8,117.6z"/>
			<path class="st1" d="M79.2,134.4c-0.5,0.2-0.8,0.8-0.6,1.3c0.2,0.4,0.5,0.6,0.9,0.6c0.1,0,0.2,0,0.4-0.1h0
				c0.5-0.2,0.8-0.8,0.6-1.3C80.2,134.4,79.7,134.2,79.2,134.4z"/>
			<path class="st1" d="M71.6,137.4c-0.5,0.2-0.8,0.8-0.5,1.3c0.2,0.4,0.5,0.6,0.9,0.6c0.1,0,0.3,0,0.4-0.1c0.5-0.2,0.8-0.8,0.5-1.3
				C72.6,137.4,72.1,137.2,71.6,137.4z"/>
			<path class="st1" d="M60.3,142.3c-0.5,0.2-0.7,0.8-0.5,1.3c0.2,0.4,0.5,0.6,0.9,0.6c0.1,0,0.3,0,0.4-0.1c0.5-0.2,0.7-0.8,0.5-1.3
				C61.4,142.3,60.8,142.1,60.3,142.3z"/>
			<path class="st1" d="M40.1,154.2c-0.3-0.5-0.9-0.6-1.4-0.3c-0.5,0.3-0.6,0.9-0.3,1.4c0.2,0.3,0.5,0.4,0.8,0.4
				c0.2,0,0.4-0.1,0.6-0.2v0C40.2,155.3,40.4,154.7,40.1,154.2z"/>
			<path class="st1" d="M67.8,139c-0.5,0.2-0.7,0.8-0.5,1.3c0.2,0.4,0.5,0.6,0.9,0.6c0.1,0,0.3,0,0.4-0.1c0.5-0.2,0.7-0.8,0.5-1.3
				C68.9,139,68.3,138.8,67.8,139z"/>
			<path class="st1" d="M141.6,97.2C141.7,97.2,141.7,97.2,141.6,97.2c1.4-0.1,2.8-0.3,4.2-0.6c0.5-0.1,0.9-0.6,0.8-1.2
				c-0.1-0.5-0.6-0.9-1.2-0.8c-1.4,0.3-2.7,0.5-3.9,0.6c-0.5,0.1-1,0.5-0.9,1.1C140.7,96.8,141.1,97.2,141.6,97.2z"/>
			<path class="st1" d="M157.1,92.6c0.2,0,0.3,0,0.5-0.1c1.2-0.6,2.4-1.3,3.6-2c0.5-0.3,0.6-0.9,0.4-1.4s-0.9-0.6-1.4-0.4
				c-1.2,0.7-2.3,1.3-3.5,1.9c-0.5,0.3-0.7,0.9-0.4,1.3C156.4,92.4,156.7,92.6,157.1,92.6z"/>
			<path class="st1" d="M158.1,73.7c-0.3-0.5-0.9-0.6-1.4-0.3c-1.1,0.6-2.2,1.2-3.5,1.7c-0.5,0.2-0.8,0.8-0.6,1.3
				c0.2,0.4,0.5,0.6,0.9,0.6c0.1,0,0.2,0,0.4-0.1c1.4-0.5,2.7-1.1,3.8-1.8C158.2,74.7,158.4,74.1,158.1,73.7z"/>
			<path class="st1" d="M149.6,95.7c0.1,0,0.2,0,0.2,0c0.4-0.1,0.9-0.2,1.4-0.4c0,0,0.1,0,0.1,0c0.9-0.4,1.7-0.7,2.5-1.1
				c0.5-0.2,0.7-0.8,0.5-1.3c-0.2-0.5-0.8-0.7-1.3-0.5c-0.7,0.3-1.5,0.7-2.4,1c-0.4,0.1-0.9,0.2-1.3,0.3c-0.5,0.1-0.9,0.7-0.7,1.2
				C148.8,95.4,149.2,95.7,149.6,95.7z"/>
			<path class="st1" d="M164.1,88.5c0.2,0,0.4,0,0.5-0.2l0.1-0.1c1-0.6,1.9-1.2,2.9-1.8c-0.1-0.7-0.3-1.4-0.4-2c0,0-0.1,0-0.1,0
				c-1.1,0.7-2.2,1.3-3.4,2.1l-0.1,0.1c-0.5,0.3-0.6,0.9-0.3,1.4C163.5,88.3,163.8,88.5,164.1,88.5z"/>
			<path class="st1" d="M161.7,68.7c-0.6,0.8-1.2,1.6-1.9,2.3c-0.4,0.4-0.4,1,0,1.4c0.2,0.2,0.5,0.3,0.7,0.3c0.3,0,0.5-0.1,0.7-0.3
				c0.5-0.5,1-1.1,1.5-1.7C162.3,70.1,162,69.4,161.7,68.7z"/>
			<path class="st1" d="M142.6,78.5c-0.1-0.5-0.6-0.9-1.2-0.8c-1.7,0.4-3,0.7-4.1,1.1c-0.5,0.2-0.8,0.8-0.6,1.3
				c0.2,0.4,0.5,0.6,0.9,0.6c0.1,0,0.2,0,0.4-0.1c1-0.4,2.2-0.7,3.8-1C142.4,79.6,142.7,79,142.6,78.5z"/>
			<path class="st1" d="M132.6,85.6c0.7-1.1,1.5-2.1,2.4-3c0.4-0.4,0.4-1,0-1.4c-0.4-0.4-1-0.4-1.4,0c-1,1-2,2.1-2.7,3.4
				c-0.3,0.5-0.1,1.1,0.3,1.4c0.2,0.1,0.3,0.1,0.5,0.1C132.1,86.1,132.4,85.9,132.6,85.6z"/>
			<path class="st1" d="M150.6,76.9c-0.1-0.5-0.7-0.9-1.2-0.7c-1.4,0.3-2.8,0.6-3.9,0.8c-0.5,0.1-0.9,0.6-0.8,1.2
				c0.1,0.5,0.5,0.8,1,0.8c0.1,0,0.1,0,0.2,0c1.2-0.2,2.6-0.5,4-0.8C150.4,77.9,150.7,77.4,150.6,76.9z"/>
			<path class="st1" d="M133.2,96.4c1.2,0.5,2.6,0.8,4.3,0.9c0,0,0,0,0.1,0c0.5,0,1-0.4,1-0.9c0-0.6-0.4-1-0.9-1.1
				c-1.4-0.1-2.7-0.4-3.6-0.8c-0.5-0.2-1.1,0-1.3,0.5C132.5,95.6,132.7,96.2,133.2,96.4z"/>
			<path class="st1" d="M130.4,87.9c-0.5-0.1-1.1,0.2-1.2,0.8c-0.1,0.6-0.2,1.2-0.2,1.7c0,1.1,0.2,2,0.6,2.9
				c0.2,0.4,0.5,0.6,0.9,0.6c0.1,0,0.3,0,0.4-0.1c0.5-0.2,0.7-0.8,0.5-1.3c-0.3-0.6-0.4-1.3-0.4-2c0-0.4,0-0.9,0.1-1.3
				C131.3,88.5,131,88,130.4,87.9z"/>
		</g>
	</g>
	<path class="st2" d="M129.8,55.4L129.8,55.4L129.8,55.4c-8.1-5.3-17.8-8.3-28.1-8.3H50v27.2v25.3v66.3h15.4v-15.4h36.3
		c10.4,0,20-3.1,28.1-8.3c14.2-9.2,23.6-25.2,23.6-43.4C153.4,80.6,144,64.6,129.8,55.4z"/>
	<g>
		<path class="st3" d="M149.9,102.4c-1.2-0.6-2.6-0.9-4.1-0.9c-2.1,0-3.7,0.5-3.8,0.6l-0.7,0.2l0.2,0.7c0.1,0.2,1.6,4.2,5.2,5.9
			c1.2,0.6,2.6,0.9,4.1,0.9c0.5,0,0.9,0,1.3-0.1c0.3-1.6,0.6-3.2,0.8-4.8C152.2,104,151.2,103.1,149.9,102.4z M147.6,107.1
			c-1.7-0.8-2.8-2.3-3.5-3.4c0.5-0.1,1-0.1,1.6-0.1c1.2,0,2.3,0.2,3.3,0.7c1.7,0.8,2.8,2.3,3.5,3.4c-0.5,0.1-1,0.1-1.6,0.1
			C149.7,107.8,148.6,107.6,147.6,107.1z"/>
		<path class="st3" d="M138.3,63.1c0.2-0.1,0.4-0.1,0.6-0.2c-0.5-0.5-1-1.1-1.6-1.6c-0.5,0.1-1.1,0.2-1.7,0.2
			c-1.1,0-2.1-0.2-2.9-0.4c0.5-0.6,1.2-1.4,2.1-2c-0.5-0.4-1.1-0.9-1.6-1.3c-2,1.5-3,3.5-3.1,3.6l-0.3,0.6l0.6,0.3
			c0.1,0.1,2.4,1.2,5.2,1.2C136.5,63.5,137.4,63.4,138.3,63.1z"/>
		<path class="st3" d="M108,104.4l-0.2-0.7c0-0.1-0.2-0.7-0.3-1.4c0-0.1,0-0.1,0-0.2c-1-1.1-2.6-2.4-4.6-3c-0.8-0.2-1.6-0.3-2.4-0.3
			c-2.9,0-5.3,1.3-5.4,1.3l-0.6,0.3l0.4,0.6c0.1,0.2,2.3,3.9,6.1,5c0.8,0.2,1.6,0.3,2.4,0.3c2.9,0,5.3-1.3,5.4-1.3l0,0
			c-0.1,0-0.2,0-0.3-0.1C108.2,104.9,108.1,104.7,108,104.4z M103.3,104.4c-0.7,0-1.3-0.1-1.9-0.2c-1.8-0.5-3.2-1.8-4-2.8
			c0.8-0.3,1.9-0.5,3-0.5c0.7,0,1.3,0.1,1.9,0.2c1.8,0.5,3.2,1.8,4,2.8C105.5,104.1,104.5,104.4,103.3,104.4z"/>
		<path class="st3" d="M109.9,104.8c0.1,0,0.6-0.2,1.3-0.6c0.5-0.3,0.7-0.9,0.4-1.3c-0.3-0.5-0.9-0.7-1.3-0.4
			c-0.3,0.2-0.6,0.3-0.8,0.4c-0.1-0.2-0.1-0.5-0.2-0.8c-0.1-0.5-0.6-0.9-1.2-0.8c0,0-0.1,0-0.1,0c0.6,1.3,1.1,2.5,1.7,3.7
			L109.9,104.8z"/>
		<path class="st3" d="M107.4,102.1C107.4,102.1,107.4,102.1,107.4,102.1c0,0.1,0,0.2,0,0.2c0.1,0.8,0.3,1.3,0.3,1.4l0.2,0.7
			c0.1,0.3,0.3,0.5,0.5,0.6c0.1,0,0.2,0,0.3,0.1c0,0,0,0,0.1,0C108.4,104.1,107.9,103.1,107.4,102.1z"/>
		<path class="st3" d="M108.2,98.6c0.1,0,0.1,0,0.2,0c0.5,0,0.9-0.3,1-0.8c0.1-0.7,0.4-1.3,0.6-1.9c0.3-0.6,0.7-1.1,1.1-1.6
			c0.4-0.4,0.3-1-0.1-1.4c-0.4-0.4-1-0.3-1.4,0.1c-0.6,0.6-1,1.3-1.4,2.1c-0.4,0.7-0.6,1.5-0.8,2.4C107.3,98,107.7,98.5,108.2,98.6z
			"/>
		<path class="st3" d="M114.4,91.9c0.3-0.2,0.6-0.3,0.8-0.4c0,0.2,0.1,0.5,0.2,0.8c0.1,0.5,0.5,0.8,1,0.8c0.1,0,0.1,0,0.2,0
			c0.5-0.1,0.9-0.6,0.8-1.2c-0.1-0.9-0.3-1.4-0.3-1.4l-0.2-0.7c-0.1-0.3-0.3-0.5-0.5-0.6c-0.2-0.1-0.5-0.1-0.8,0l-0.6,0.2
			c0,0-0.6,0.2-1.4,0.6c-0.5,0.3-0.7,0.9-0.4,1.3S113.9,92.1,114.4,91.9z"/>
		<path class="st3" d="M114.4,101.6c0.3,0,0.6-0.1,0.8-0.3c0.6-0.6,1-1.3,1.4-2.1c0.4-0.7,0.6-1.5,0.8-2.4c0.1-0.5-0.2-1.1-0.8-1.2
			c-0.5-0.1-1.1,0.2-1.2,0.8c-0.1,0.7-0.4,1.3-0.6,1.9c-0.3,0.6-0.7,1.1-1.1,1.6c-0.4,0.4-0.3,1,0.1,1.4
			C113.9,101.5,114.1,101.6,114.4,101.6z"/>
		<path class="st3" d="M109.7,132.2c-1.9-1.3-4.1-1.5-5.7-1.5c-1.2,0-2,0.2-2.1,0.2l-0.7,0.1l0.2,0.7c0,0.2,1,4.4,4.4,6.6
			c1.9,1.3,4.2,1.5,5.7,1.5c1.2,0,2-0.2,2-0.2l0.1,0c0-0.7,0-1.4,0-2.1C113.1,136,112,133.6,109.7,132.2z M111.5,137.7
			c-1.3,0-3.1-0.2-4.6-1.2c-1.6-1-2.5-2.7-3-3.9c0.1,0,0.1,0,0.2,0c1.3,0,3.1,0.2,4.6,1.2c1.6,1,2.5,2.7,3,3.9
			C111.6,137.7,111.6,137.7,111.5,137.7z"/>
		<path class="st3" d="M57.4,62.5c0.2,0,4.5-0.6,7-3.7c2.5-3.1,2.2-7.4,2.2-7.6l-0.1-0.7l-0.7,0.1c-0.2,0-4.5,0.6-7,3.7
			c-2,2.5-2.2,5.7-2.2,7c0.2,0.4,0.4,0.8,0.6,1.2L57.4,62.5z M60.4,55.6c1.2-1.4,2.9-2.2,4.2-2.6c-0.1,1.3-0.5,3.2-1.7,4.6
			c-1.2,1.4-2.9,2.2-4.2,2.6C58.8,58.9,59.2,57,60.4,55.6z"/>
		<path class="st3" d="M57.8,73.7c-1.2-0.6-2.6-0.9-4.1-0.9c-1.9,0-3.4,0.4-3.7,0.5v0.9v1c0.7,1.4,2.2,3.7,4.7,4.9
			c1.2,0.6,2.6,0.9,4.1,0.9c1.9,0,3.4-0.4,3.7-0.5c-0.1-0.9-0.3-1.9-0.5-2.8C61.2,76.4,59.8,74.7,57.8,73.7z M55.6,78.4
			c-1.7-0.8-2.8-2.3-3.5-3.4c0.5-0.1,1-0.1,1.6-0.1c1.2,0,2.3,0.2,3.3,0.7c1.7,0.8,2.8,2.3,3.5,3.4c-0.5,0.1-1,0.1-1.6,0.1
			C57.6,79.1,56.5,78.9,55.6,78.4z"/>
		<path class="st3" d="M79.1,80.7c-0.5,0-1,0.4-1,1c0,0.3,0,0.6-0.1,0.8c-0.2-0.1-0.5-0.1-0.8-0.3c-0.5-0.2-1.1,0.1-1.3,0.6
			c-0.2,0.5,0.1,1.1,0.6,1.3c0.7,0.2,1.2,0.4,1.4,0.4l0.6,0.1c0.5-1.1,1-2.1,1.5-3C80,81.1,79.6,80.7,79.1,80.7z"/>
		<path class="st3" d="M70.7,79.9c0.5,0.7,1,1.3,1.7,1.9c0.2,0.2,0.4,0.2,0.7,0.2c0.3,0,0.6-0.1,0.8-0.3c0.4-0.4,0.3-1-0.1-1.4
			c-0.5-0.5-1-0.9-1.3-1.5c-0.4-0.5-0.7-1.1-0.9-1.8c-0.2-0.5-0.8-0.8-1.3-0.6c-0.5,0.2-0.8,0.8-0.6,1.3
			C69.8,78.4,70.2,79.2,70.7,79.9z"/>
		<path class="st3" d="M69.8,73.9c0.5,0,1-0.4,1-1c0-0.3,0-0.6,0.1-0.8c0.2,0.1,0.5,0.1,0.8,0.3c0.5,0.2,1.1-0.1,1.3-0.6
			c0.2-0.5-0.1-1.1-0.6-1.3C71.6,70.2,71.1,70,71,70l-0.7-0.1c-0.3-0.1-0.5,0-0.8,0.2c-0.2,0.2-0.4,0.4-0.4,0.7L69,71.4
			c0,0.1-0.1,0.7-0.1,1.5C68.8,73.4,69.2,73.9,69.8,73.9C69.8,73.9,69.8,73.9,69.8,73.9z"/>
		<path class="st3" d="M76.6,75.8c0.4,0.5,0.7,1.1,0.9,1.8c0.1,0.4,0.5,0.7,0.9,0.7c0.1,0,0.2,0,0.3-0.1c0.5-0.2,0.8-0.8,0.6-1.3
			c-0.3-0.8-0.7-1.6-1.1-2.2c-0.5-0.7-1-1.3-1.7-1.9c-0.4-0.4-1-0.3-1.4,0.1c-0.4,0.4-0.3,1,0.1,1.4C75.8,74.8,76.2,75.3,76.6,75.8z
			"/>
		<path class="st3" d="M72.9,118.4c0.1,0.1,2.7,1.6,5.8,1.6c0.7,0,1.3-0.1,2-0.2c3.9-0.9,6.3-4.5,6.4-4.7l0.4-0.6l-0.6-0.4
			c-0.1-0.1-2.7-1.6-5.8-1.6c-0.7,0-1.3,0.1-2,0.2c-1.9,0.5-3.5,1.6-4.6,2.6c-0.5,1-1,2-1.7,2.9L72.9,118.4z M79.5,114.7
			c0.5-0.1,1-0.2,1.5-0.2c1.3,0,2.5,0.3,3.4,0.7c-0.9,1-2.3,2.2-4.2,2.6c-0.5,0.1-1,0.2-1.5,0.2c-1.3,0-2.5-0.3-3.4-0.7
			C76.2,116.3,77.7,115.1,79.5,114.7z"/>
		<path class="st3" d="M50,140.9v3.2l0.5,0c-0.1-0.6-0.1-1.3-0.2-2C50.2,141.8,50.1,141.4,50,140.9z"/>
		<path class="st3" d="M115.7,125.3c0,0,0.1,0,0.1,0c0.5,0,0.9-0.4,1-0.9c0.1-0.5-0.3-1-0.9-1.1c-0.3,0-0.6-0.1-0.8-0.1
			c0.1-0.2,0.2-0.5,0.3-0.7c0.2-0.5,0-1.1-0.5-1.3c-0.5-0.2-1.1,0-1.3,0.5c0,0,0,0.1-0.1,0.1c0.1,1.1,0.2,2.1,0.4,3.2
			C114.3,125.1,115,125.2,115.7,125.3z"/>
		<path class="st3" d="M112.9,124.3c0-0.2,0-0.3-0.1-0.5C112.9,124,112.9,124.2,112.9,124.3z"/>
		<path class="st3" d="M116.8,119.3c0.3,0,0.6-0.1,0.8-0.4c0.8-1.2,1.8-2.1,2.8-2.9c0.4-0.3,0.5-1,0.2-1.4c-0.3-0.4-1-0.5-1.4-0.2
			c-1.1,0.9-2.2,2-3.1,3.3c-0.3,0.4-0.2,1.1,0.2,1.4C116.4,119.3,116.6,119.3,116.8,119.3z"/>
		<path class="st3" d="M128.7,112.2c0-0.6-0.5-1-1.1-0.9c-1.6,0.1-3.1,0.4-4.5,0.9c-0.5,0.2-0.8,0.8-0.6,1.3
			c0.1,0.4,0.5,0.7,0.9,0.7c0.1,0,0.2,0,0.3-0.1c1.2-0.4,2.5-0.7,4-0.8C128.3,113.2,128.8,112.7,128.7,112.2z"/>
		<path class="st3" d="M131.1,112.2c-0.1,0.5,0.3,1,0.9,1.1c0.3,0,0.6,0.1,0.8,0.1c-0.1,0.2-0.2,0.5-0.3,0.7c-0.2,0.5,0,1.1,0.5,1.3
			c0.1,0.1,0.3,0.1,0.4,0.1c0.4,0,0.7-0.2,0.9-0.6c0.5-1.2,0.8-2,0.8-2c0.1-0.3,0-0.5-0.1-0.8c-0.1-0.2-0.4-0.4-0.6-0.5
			c0,0-0.8-0.2-2.1-0.4C131.6,111.3,131.1,111.7,131.1,112.2z"/>
		<path class="st3" d="M120.2,125.4C120.2,125.4,120.2,125.4,120.2,125.4c1.7-0.1,3.2-0.4,4.6-0.9c0.5-0.2,0.8-0.8,0.6-1.3
			c-0.2-0.5-0.8-0.8-1.3-0.6c-1.2,0.4-2.5,0.7-4,0.8c-0.6,0-1,0.5-0.9,1.1C119.2,125,119.7,125.4,120.2,125.4z"/>
		<path class="st3" d="M131.9,118.9c0.3-0.4,0.2-1.1-0.2-1.4c-0.4-0.3-1.1-0.2-1.4,0.2c-0.8,1.2-1.8,2.1-2.8,2.9
			c-0.4,0.3-0.5,1-0.2,1.4c0.2,0.2,0.5,0.4,0.8,0.4c0.2,0,0.4-0.1,0.6-0.2C129.9,121.4,131,120.2,131.9,118.9z"/>
		<path class="st3" d="M88,47.1h-3.9c0.4,0.2,0.9,0.4,1.3,0.6c2.9,1.7,4.7,4.7,5.7,6.8c-0.5,0-1,0.1-1.6,0.1c-1.9,0-4.7-0.3-7.1-1.7
			c-2.5-1.5-4.2-3.8-5.2-5.8H75c1.1,2.3,3.1,5.6,6.4,7.5c2.7,1.6,5.7,2,8.1,2c1.6,0,2.9-0.2,3.6-0.3c-0.1-0.9-0.2-1.9-0.3-2.8
			C91.9,51.5,90.4,49,88,47.1z"/>
		<path class="st3" d="M67.9,138.6c0,0-7,1.6-10.5,7c-2.5,3.8-2.5,8.4-2.3,10.8c0.2,0.5,0.4,1,0.5,1.5c1.4-0.4,6.6-2.1,9.7-6.3v-1
			h0.7C69.2,145.2,67.9,138.6,67.9,138.6z M64.1,149.9c-1.9,2.9-5,4.5-7.1,5.4c-0.1-2.3,0.2-5.8,2.1-8.6c1.9-2.8,5-4.5,7.1-5.4
			C66.3,143.5,66,147,64.1,149.9z"/>
		<path class="st3" d="M131.9,75.5c-0.2,0.2-0.3,0.4-0.3,0.7c0,0.3,0.1,0.5,0.3,0.7c0.2,0.2,0.4,0.3,0.7,0.3c0.3,0,0.5-0.1,0.7-0.3
			c0.2-0.2,0.3-0.4,0.3-0.7c0-0.3-0.1-0.5-0.3-0.7C133,75.1,132.3,75.1,131.9,75.5z"/>
		<path class="st3" d="M148.9,81c-0.3-0.4-1-0.5-1.4-0.2c-0.4,0.3-0.5,1-0.2,1.4c0.2,0.2,0.5,0.4,0.8,0.4c0.2,0,0.4-0.1,0.6-0.2
			C149.1,82.1,149.2,81.4,148.9,81z"/>
		<path class="st3" d="M145,79.7c0.3,0,0.6-0.2,0.8-0.4c0.3-0.5,0.2-1.1-0.2-1.4c-0.5-0.3-1.1-0.2-1.4,0.2c-0.3,0.5-0.2,1.1,0.2,1.4
			C144.6,79.6,144.8,79.7,145,79.7z"/>
		<path class="st3" d="M150.3,86.3c0.1,0,0.3,0,0.4-0.1c0.5-0.2,0.7-0.8,0.5-1.3c-0.2-0.5-0.8-0.7-1.3-0.5c-0.5,0.2-0.7,0.8-0.5,1.3
			C149.5,86.1,149.9,86.3,150.3,86.3z"/>
		<path class="st3" d="M140.2,76.5c-0.2,0.5,0.1,1.1,0.7,1.2c0.1,0,0.2,0,0.3,0c0.4,0,0.8-0.3,1-0.7c0.2-0.5-0.1-1.1-0.7-1.2
			C140.9,75.7,140.3,76,140.2,76.5z"/>
		<path class="st3" d="M135.9,76c0,0.6,0.4,1,0.9,1.1c0,0,0.1,0,0.1,0c0.5,0,1-0.4,1-0.9c0-0.5-0.4-1-0.9-1.1
			C136.4,75,136,75.4,135.9,76z"/>
		<path class="st3" d="M151.7,90.3c0.1,0,0.2,0,0.2,0c0-0.6-0.1-1.3-0.1-1.9c-0.3,0-0.6,0-0.8,0.3c-0.2,0.2-0.3,0.4-0.3,0.7
			c0,0.3,0.1,0.5,0.3,0.7C151.2,90.2,151.4,90.3,151.7,90.3z"/>
		<path class="st3" d="M133.1,80.7c0.2,0.4,0.5,0.6,0.9,0.6c0.1,0,0.3,0,0.4-0.1c0.5-0.2,0.7-0.8,0.5-1.3c-0.2-0.5-0.8-0.7-1.3-0.5
			S132.9,80.2,133.1,80.7z"/>
		<path class="st3" d="M143.5,87.7c-0.5-0.2-1.1,0.1-1.2,0.7c-0.2,0.5,0.1,1.1,0.7,1.2c0.1,0,0.2,0,0.3,0c0.4,0,0.8-0.3,1-0.7
			C144.3,88.4,144,87.9,143.5,87.7z"/>
		<path class="st3" d="M139.3,87.9c0.3,0,0.6-0.1,0.8-0.4c0.3-0.4,0.2-1.1-0.2-1.4h0c-0.5-0.3-1.1-0.2-1.4,0.2
			c-0.3,0.5-0.2,1.1,0.3,1.4c0,0,0,0,0,0C138.9,87.8,139.1,87.9,139.3,87.9z"/>
		<path class="st3" d="M136.3,84.9c0.2,0,0.4-0.1,0.6-0.2c0.4-0.3,0.5-1,0.2-1.4c-0.3-0.4-1-0.5-1.4-0.2c-0.4,0.3-0.5,1-0.2,1.4
			C135.7,84.8,136,84.9,136.3,84.9z"/>
		<path class="st3" d="M146.4,89.4c0,0.5,0.4,1,0.9,1.1c0,0,0,0,0.1,0c0.5,0,1-0.4,1-0.9c0-0.6-0.4-1-0.9-1.1
			C146.9,88.4,146.4,88.8,146.4,89.4z"/>
		<path class="st3" d="M77,144.7c0.2-0.2,0.3-0.4,0.3-0.7c0-0.3-0.1-0.5-0.3-0.7c-0.4-0.4-1-0.4-1.4,0c-0.2,0.2-0.3,0.5-0.3,0.7
			c0,0.3,0.1,0.5,0.3,0.7c0.2,0.2,0.4,0.3,0.7,0.3C76.6,145,76.9,144.9,77,144.7z"/>
		<path class="st3" d="M79.3,144.2c-0.1,0.5,0.3,1,0.8,1.1c0,0,0.1,0,0.1,0c0.5,0,0.9-0.4,1-0.9c0.1-0.5-0.3-1.1-0.8-1.1
			C79.9,143.3,79.3,143.7,79.3,144.2z"/>
		<path class="st3" d="M91.4,149.1c0.3,0,0.7-0.2,0.9-0.5c0.3-0.5,0.1-1.1-0.4-1.4s-1.1-0.1-1.4,0.4c-0.3,0.5-0.1,1.1,0.4,1.4
			C91.1,149,91.3,149.1,91.4,149.1z"/>
		<path class="st3" d="M95.3,149.5c-0.4-0.3-1.1-0.3-1.4,0.2c-0.2,0.3-0.2,0.6-0.2,0.9h1.9C95.7,150.2,95.6,149.8,95.3,149.5z"/>
		<path class="st3" d="M83.1,144.9c-0.1,0.5,0.2,1.1,0.7,1.2c0.1,0,0.2,0,0.2,0c0.4,0,0.9-0.3,1-0.8c0.1-0.5-0.2-1.1-0.7-1.2
			C83.8,144.1,83.3,144.4,83.1,144.9z"/>
		<path class="st3" d="M87.5,147.3c0.1,0.1,0.2,0.1,0.4,0.1c0.4,0,0.8-0.2,0.9-0.6c0.2-0.5-0.1-1.1-0.6-1.3c-0.5-0.2-1.1,0-1.3,0.6
			C86.7,146.5,87,147.1,87.5,147.3z"/>
		<path class="st3" d="M76.8,148.9c0.1,0,0.1,0,0.2,0c0.5-0.1,0.9-0.6,0.8-1.2c-0.1-0.5-0.6-0.9-1.2-0.8c-0.5,0.1-0.9,0.6-0.8,1.2
			C75.9,148.6,76.3,148.9,76.8,148.9z"/>
		<path class="st3" d="M99.7,79.2c0,0,0.8-0.3,1.9-0.9c0.5-0.3,0.7-0.9,0.4-1.4c-0.3-0.5-0.9-0.7-1.4-0.4c-0.3,0.2-0.5,0.3-0.8,0.4
			c-0.1-0.2-0.2-0.5-0.2-0.8c-0.1-0.5-0.7-0.8-1.2-0.7c0,0-0.1,0-0.1,0c0.4,1.3,0.8,2.6,1.2,3.8C99.6,79.3,99.6,79.3,99.7,79.2z"/>
		<path class="st3" d="M97.8,73.1c0.1,0,0.1,0,0.2,0c0.5-0.1,0.9-0.6,0.8-1.1c-0.2-1.4-0.4-2.8-0.4-4.2c0-0.6-0.5-1-1-1
			c-0.6,0-1,0.5-1,1c0,0.1,0,0.3,0,0.4c0.4,1.7,0.8,3.3,1.3,4.9C97.7,73.1,97.7,73.1,97.8,73.1z"/>
		<path class="st3" d="M100.2,56.1c0.4,0,0.7-0.2,0.9-0.5c0.7-1.2,1.4-2.3,2.4-3.5c0.3-0.4,0.3-1.1-0.1-1.4
			c-0.4-0.3-1.1-0.3-1.4,0.1c-1,1.2-1.8,2.5-2.6,3.8c-0.3,0.5-0.1,1.1,0.4,1.4C99.8,56.1,100,56.1,100.2,56.1z"/>
		<path class="st3" d="M104.9,49c0.2,0.2,0.5,0.3,0.7,0.3c0.2,0,0.5-0.1,0.7-0.3c0.6-0.5,1.2-1.1,1.9-1.6c-0.9-0.1-1.9-0.2-2.8-0.3
			c-0.1,0.1-0.3,0.3-0.4,0.4C104.5,48,104.5,48.6,104.9,49z"/>
		<path class="st3" d="M97.4,64.4c0,0,0.1,0,0.1,0c0.5,0,0.9-0.4,1-0.9c0.2-1.4,0.5-2.8,0.9-4.1c0.2-0.5-0.1-1.1-0.7-1.3
			c-0.5-0.2-1.1,0.1-1.3,0.7c-0.4,1.4-0.7,2.9-0.9,4.4C96.5,63.8,96.9,64.3,97.4,64.4z"/>
		<path class="st3" d="M115.1,62.6c0.1,0,0.2,0,0.3,0c0.4,0,0.8-0.3,1-0.7c0.4-1.4,0.7-2.9,0.9-4.4c0.1-0.5-0.3-1-0.9-1.1
			c-0.6-0.1-1,0.3-1.1,0.9c-0.2,1.4-0.5,2.8-0.9,4.1C114.3,61.8,114.6,62.4,115.1,62.6z"/>
		<path class="st3" d="M104.9,76.1c0.2,0,0.4-0.1,0.6-0.2c1.3-0.9,2.4-1.8,3.5-2.8c0.4-0.4,0.4-1,0.1-1.4c-0.4-0.4-1-0.4-1.4-0.1
			c-1,0.9-2.1,1.8-3.3,2.6c-0.5,0.3-0.6,0.9-0.2,1.4C104.2,76,104.5,76.1,104.9,76.1z"/>
		<path class="st3" d="M114.6,66.1c0.3-0.5,0.1-1.1-0.4-1.4c-0.5-0.3-1.1-0.1-1.4,0.4c-0.7,1.2-1.4,2.3-2.4,3.5
			c-0.3,0.4-0.3,1.1,0.1,1.4c0.2,0.2,0.4,0.2,0.6,0.2c0.3,0,0.6-0.1,0.8-0.4C113,68.6,113.9,67.4,114.6,66.1z"/>
		<path class="st3" d="M115.5,53c0,0.5,0.5,1,1,1c0,0,0,0,0,0c0.6,0,1-0.5,1-1c0-1.1-0.1-2.3-0.3-3.5c-0.7-0.2-1.4-0.4-2.1-0.6
			C115.4,50.3,115.5,51.6,115.5,53z"/>
		<path class="st3" d="M132.1,138.8c0,0,0.1,0,0.1,0c0.6-0.1,0.9-0.6,0.9-1.1c-0.1-0.6-0.6-0.9-1.1-0.9c-0.5,0.1-0.9,0.6-0.9,1.1
			C131.2,138.4,131.6,138.8,132.1,138.8z"/>
		<path class="st3" d="M131.9,134.8c0.5,0,1-0.4,1-1c0-0.5-0.4-1-1-1c-0.6,0-1,0.4-1,1C130.9,134.3,131.3,134.8,131.9,134.8
			C131.9,134.8,131.9,134.8,131.9,134.8z"/>
		<path class="st3" d="M132.4,128.9c-0.5-0.1-1,0.3-1.1,0.9c-0.1,0.5,0.3,1,0.9,1.1c0,0,0.1,0,0.1,0c0.5,0,0.9-0.4,1-0.9
			C133.3,129.5,133,129,132.4,128.9z"/>
		<path class="st3" d="M134,126.3c0.1-0.5-0.2-1.1-0.7-1.2c-0.5-0.1-1.1,0.2-1.2,0.7c-0.1,0.5,0.2,1.1,0.7,1.2c0.1,0,0.2,0,0.2,0
			C133.5,127,133.9,126.7,134,126.3z"/>
		<path class="st3" d="M134.9,123c0.2-0.2,0.3-0.4,0.3-0.7c0-0.3-0.1-0.5-0.3-0.7c-0.4-0.4-1-0.4-1.4,0c-0.2,0.2-0.3,0.4-0.3,0.7
			c0,0.3,0.1,0.5,0.3,0.7c0.2,0.2,0.4,0.3,0.7,0.3C134.5,123.2,134.8,123.1,134.9,123z"/>
		<path class="st3" d="M143,128.5c-0.4,0.4-0.4,1,0,1.4c0.4-0.5,0.8-1,1.1-1.6C143.8,128.1,143.3,128.2,143,128.5z"/>
		<path class="st3" d="M137.1,125c0.2,0.1,0.4,0.2,0.5,0.2c0.3,0,0.6-0.1,0.8-0.5c0.3-0.5,0.2-1.1-0.3-1.4s-1.1-0.2-1.4,0.3
			C136.5,124.1,136.6,124.7,137.1,125z"/>
		<path class="st3" d="M140.8,127.5c0.3,0,0.6-0.1,0.8-0.4c0.3-0.4,0.3-1-0.1-1.4s-1.1-0.3-1.4,0.1c-0.4,0.4-0.3,1.1,0.1,1.4
			C140.4,127.5,140.6,127.5,140.8,127.5z"/>
		<path class="st3" d="M57.4,108.2c-0.4-0.4-1-0.4-1.4,0c-0.2,0.2-0.3,0.5-0.3,0.7c0,0.3,0.1,0.5,0.3,0.7s0.4,0.3,0.7,0.3
			c0.1,0,0.2,0,0.2,0C57,109.3,57.2,108.8,57.4,108.2C57.4,108.2,57.4,108.2,57.4,108.2z"/>
		<path class="st3" d="M51.7,108.7c0,0.6,0.4,1,0.9,1.1c0,0,0.1,0,0.1,0c0.5,0,0.9-0.4,1-0.9c0.1-0.5-0.3-1-0.9-1.1
			C52.3,107.7,51.8,108.2,51.7,108.7z"/>
		<path class="st3" d="M55,105.3c0.1,0.5,0.5,0.8,1,0.8c0.1,0,0.2,0,0.2,0c0.5-0.1,0.9-0.7,0.7-1.2s-0.7-0.9-1.2-0.7
			C55.2,104.2,54.8,104.7,55,105.3z"/>
		<path class="st3" d="M52.8,96.7c-0.5,0.2-0.7,0.8-0.4,1.3h0c0.2,0.3,0.5,0.5,0.9,0.5c0.1,0,0.3,0,0.4-0.1c0.5-0.2,0.7-0.8,0.4-1.3
			C53.9,96.7,53.3,96.5,52.8,96.7z"/>
		<path class="st3" d="M50.7,93.4c-0.5,0.3-0.6,0.9-0.3,1.4c0.2,0.3,0.5,0.4,0.8,0.4c0.2,0,0.4-0.1,0.6-0.2c0.5-0.3,0.6-0.9,0.3-1.4
			C51.8,93.2,51.1,93.1,50.7,93.4z"/>
		<path class="st3" d="M54.5,100.3c-0.5,0.2-0.8,0.8-0.6,1.3c0.1,0.4,0.5,0.7,0.9,0.7c0.1,0,0.2,0,0.3-0.1c0.5-0.2,0.8-0.8,0.6-1.3
			C55.6,100.4,55,100.1,54.5,100.3z"/>
		<path class="st3" d="M55,156c-1.4-3.7-2.7-7.3-3.3-10.6c-1.1-5.9,0-13.1,2-21c-0.2-0.1-0.3-0.3-0.3-0.5c0-0.3,0.3-0.5,0.5-0.5
			c0,0,0,0,0,0c1.1-4.1,2.4-8.4,3.7-12.8c1.8-6.1,3.7-12.4,5.2-18.7c2.7-11.6-1.2-20.8-5.6-29.5c-0.2-0.4-0.4-0.8-0.6-1.2
			c-0.3-0.6-0.7-1.3-1-1.9c-2.2-4.2-4.3-8.3-5.5-12.3H50v2.7c1.3,3.3,3,6.7,4.8,10.1c3,5.7,6,11.4,7.3,17.9c0.2,0.9,0.4,1.8,0.5,2.8
			c0.4,3.5,0.3,7.2-0.6,11.2c-1.3,5.6-2.9,11.1-4.5,16.4c-0.2,0.5-0.3,1.1-0.5,1.6c-0.1,0.2-0.1,0.4-0.2,0.6
			c-3.5,11.7-6.8,22.7-6.4,31.6c0,0.7,0.1,1.3,0.2,2c0.1,0.5,0.1,1.1,0.2,1.6c0.6,3.4,1.9,6.9,3.3,10.7c1.1,3,2.3,6.2,3.2,9.6h1
			c-0.8-2.8-1.7-5.5-2.6-8.1c-0.2-0.5-0.4-1-0.5-1.5C55.1,156.2,55,156.1,55,156z"/>
		<path class="st3" d="M114,125c-0.1-1.1-0.2-2.2-0.4-3.2c-0.9-7.2-2.2-13.4-3.5-16.2c-0.1-0.3-0.2-0.5-0.4-0.8
			c-0.5-1.1-1.1-2.4-1.7-3.7c-2.7-5.9-5.9-13.4-8.6-21.9c-0.4-1.3-0.8-2.5-1.2-3.8c-0.2-0.8-0.5-1.6-0.7-2.4
			c-0.4-1.6-0.9-3.3-1.3-4.9c-1.6-6.7-2.7-13.8-3-21.1h-1c0.1,2.1,0.2,4.2,0.5,6.3c0.1,1,0.2,1.9,0.3,2.8
			c2.4,18.4,9.3,34.9,14.3,45.8c0.5,1,0.9,2,1.4,3c0.2,0.3,0.3,0.7,0.5,1c1.3,2.9,2.8,9.9,3.6,17.8c0,0.2,0,0.3,0.1,0.5
			c0.5,4.3,0.8,8.9,0.8,13.2c0,0.7,0,1.4,0,2.1c-0.1,3.7-0.4,7.1-1,9.8c0.4-0.1,0.7-0.2,1.1-0.3C115,142.9,114.8,133.6,114,125z"/>
		<path class="st3" d="M153.3,101.4c0-0.8,0.1-1.7,0.1-2.6c0-4.4-0.6-8.7-1.6-12.8c0,0.8,0,1.6,0,2.4c0,0.6,0.1,1.3,0.1,1.9
			C152.1,93.7,152.6,97.4,153.3,101.4z"/>
		<path class="st3" d="M53.4,124c0,0.2,0.1,0.4,0.3,0.5c0.1,0,0.1,0,0.2,0.1c0.3,0,1.2,0.1,2.5,0.1c3.7,0,10.6-0.6,15.1-5
			c0.5-0.4,0.9-0.9,1.3-1.4c0.7-0.9,1.2-1.8,1.7-2.9c1.1-2.6,1.5-5.6,1.3-9.1c-1.3-17.4,8.5-29.3,8.6-29.4c0.2-0.2,0.2-0.5-0.1-0.7
			C84,76,83.7,76,83.5,76.2c0,0-1.6,2-3.5,5.4c-0.5,0.9-1,1.9-1.5,3c-2.4,5.3-4.5,12.8-3.9,21.7c0.4,5.5-0.9,9.7-3.9,12.7
			c-5.7,5.5-15.7,4.7-16.8,4.6c0,0,0,0,0,0c0,0,0,0,0,0C53.7,123.5,53.5,123.7,53.4,124z"/>
	</g>
	<path class="st4" d="M121.4,68.3L121.4,68.3L121.4,68.3c-5.7-3.7-12.5-5.8-19.8-5.8H65.4v36.9l0,0v35.7v30.8h15.4v-30.8h20.9
		c7.3,0,14.1-2.1,19.8-5.8c10-6.5,16.6-17.7,16.6-30.5C138,86,131.4,74.8,121.4,68.3z"/>
	<g>
		<path class="st5" d="M115.6,86.8L115.6,86.8L115.6,86.8c-3.3-2.1-7.2-3.4-11.4-3.4H83.4v21.2l0,0v20.6h12.8v9.8h5.9v-9.8h2.2
			c4.2,0,8.1-1.2,11.4-3.4c5.7-3.7,9.5-10.2,9.5-17.5C125.2,97,121.4,90.6,115.6,86.8z"/>
		<rect x="96.2" y="135.1" class="st6" width="5.9" height="15.4"/>
		<rect x="96.2" y="150.5" class="st7" width="5.9" height="15.4"/>
	</g>
	<g>
		<path class="st8" d="M91.9,83C91.9,83,91.9,83,91.9,83C91.8,83,91.7,83,91.7,83c0,0,0,0,0,0c0,0,0,0,0,0c-0.1,0-0.2,0-0.2-0.1
			c-0.2-0.1-0.3-0.4-0.2-0.7c0.2-0.3,0.3-0.6,0.5-0.9l-6.9-3.8c-0.1,0.3-0.3,0.6-0.5,0.9c-0.2,0.3-0.5,0.5-0.9,0.5
			c-0.2,0-0.3,0-0.5-0.1L99.3,88c-0.5-0.3-0.7-0.9-0.4-1.4c0.2-0.3,0.4-0.6,0.5-0.8l-6.9-3.8c-0.2,0.3-0.3,0.6-0.5,0.9
			C92,82.9,92,82.9,91.9,83z"/>
		<path class="st8" d="M125.3,101.3c0.2-0.3,0.3-0.6,0.4-0.9l-16.3-9.1c-0.1,0.1-0.1,0.2-0.2,0.3c0,0,0,0,0,0
			c0.1,0.5-0.2,1.1-0.7,1.2c-0.1,0-0.2,0-0.3,0c0,0-0.1,0-0.1,0l17.5,9.7C125.2,102.4,125,101.8,125.3,101.3z"/>
		<path class="st8" d="M82.5,77.5c0.2-0.3,0.3-0.6,0.4-0.9L76.5,73c-0.1,0.3-0.3,0.6-0.4,0.9c-0.2,0.3-0.5,0.5-0.9,0.5
			c-0.2,0-0.3,0-0.5-0.1l8.2,4.6C82.4,78.6,82.3,78,82.5,77.5z"/>
		<path class="st8" d="M126.2,102.8c-0.2,0-0.3,0-0.5-0.1l10.9,6.1c0.2-0.7,0.4-1.3,0.5-2l-1.4-0.8c-0.1,0.3-0.3,0.6-0.5,0.9
			c-0.2,0.3-0.5,0.5-0.9,0.5c-0.2,0-0.3,0-0.5-0.1c-0.5-0.3-0.7-0.9-0.4-1.4c0.2-0.3,0.3-0.6,0.4-0.9l-6.5-3.6
			c-0.1,0.3-0.3,0.6-0.4,0.9C126.9,102.6,126.5,102.8,126.2,102.8z"/>
		<path class="st8" d="M74.4,73.9c-0.1,0-0.1,0-0.2,0c0,0-0.1,0-0.1,0l0.7,0.4C74.6,74.2,74.4,74.1,74.4,73.9z"/>
		<path class="st8" d="M99.8,88.1c-0.2,0-0.3,0-0.5-0.1l8.2,4.5c0,0,0,0,0,0c-0.4-0.3-0.5-0.8-0.3-1.3c0.2-0.3,0.3-0.6,0.5-0.8
			l-6.5-3.6c-0.2,0.3-0.4,0.6-0.5,0.8C100.5,87.9,100.2,88.1,99.8,88.1z"/>
		<path class="st8" d="M73.9,72c0.3-0.1,0.6,0,0.8,0.2c0,0,0-0.1,0-0.1l-9.4-5.2v2.3l8,4.4c-0.1-0.1-0.1-0.2-0.2-0.3
			C73,72.7,73.4,72.1,73.9,72z"/>
		<path class="st8" d="M83.1,98.3l-17.7-9.8v2.3L80,98.9l2.3-0.7C82.6,98.2,82.8,98.2,83.1,98.3z"/>
		<path class="st8" d="M83.5,98.9l0.7,2.3l42.1,23.4l1.3-0.4c0.3-0.3,0.5-0.5,0.8-0.8l-9.1-5c0,0-0.1,0.1-0.1,0.1
			c-0.1,0-0.2,0-0.3,0c-0.4,0-0.8-0.3-1-0.7c0-0.1,0-0.1,0-0.1L85.2,99.5c0,0-0.1,0.1-0.1,0.1c-0.1,0-0.2,0-0.3,0
			c-0.4,0-0.8-0.3-1-0.7c0-0.1,0-0.1,0-0.2l-0.7-0.4C83.3,98.5,83.5,98.7,83.5,98.9z"/>
		<path class="st8" d="M85.1,133.2l0.1,0.3c0.2,0.5-0.2,1.1-0.7,1.2c-0.1,0-0.2,0-0.3,0c-0.4,0-0.8-0.3-1-0.7l-0.6-2
			c0-0.1,0-0.2,0-0.2l-7.9-4.4l0.2,0.7c0.1,0.3-0.1,0.5-0.3,0.6c0,0-0.1,0-0.1,0c-0.2,0-0.4-0.1-0.5-0.4l-0.5-1.6l-8.2-4.6v2.3
			l19.2,10.7h4.1L85.1,133.2z"/>
		<polygon class="st8" points="65.4,130.4 65.4,131.5 80.8,140.1 80.8,138.9 		"/>
		<path class="st8" d="M91.6,81.4c-0.2,0.3-0.3,0.6-0.5,0.9c0.9-1.6,1.9-3.1,3.1-4.5c1.7-4.9,2-10.2,0.9-15.3h-1
			C95.5,68.9,94.7,75.5,91.6,81.4z"/>
		<path class="st8" d="M91.7,83C91.6,83,91.6,83,91.7,83C91.6,83,91.6,83,91.7,83C91.6,83,91.6,83,91.7,83z"/>
		<path class="st8" d="M91.9,83C91.9,83,91.9,83,91.9,83C91.9,83,91.9,83,91.9,83z"/>
		<path class="st8" d="M85.9,67.6c-0.5,0-1,0.4-1,1c0,1.2-0.1,2.4-0.4,3.6c-0.1,0.5,0.2,1.1,0.8,1.2c0.1,0,0.1,0,0.2,0
			c0.5,0,0.9-0.3,1-0.8c0.3-1.3,0.4-2.7,0.4-4C86.9,68.1,86.5,67.6,85.9,67.6C85.9,67.6,85.9,67.6,85.9,67.6z"/>
		<path class="st8" d="M84.6,64.9c0.1,0.5,0.5,0.8,1,0.8c0.1,0,0.1,0,0.2,0c0.5-0.1,0.9-0.6,0.8-1.2c-0.1-0.7-0.3-1.4-0.5-2.1h-2.1
			C84.2,63.3,84.4,64.1,84.6,64.9z"/>
		<path class="st8" d="M84.3,78.5c0.2-0.3,0.3-0.6,0.5-0.9c0.2-0.3,0.3-0.7,0.5-1c0.2-0.5,0-1.1-0.5-1.3c-0.5-0.2-1.1,0-1.3,0.5
			c-0.1,0.3-0.3,0.6-0.4,0.8c-0.1,0.3-0.3,0.6-0.4,0.9c-0.3,0.5-0.1,1.1,0.4,1.4l0,0l0,0c0.2,0.1,0.3,0.1,0.5,0.1
			C83.8,79,84.1,78.8,84.3,78.5z"/>
		<path class="st8" d="M76.1,73.9c0.2-0.3,0.3-0.6,0.4-0.9c1.6-3.5,1.2-7.4-0.7-10.5h-2.4c2.1,2.6,2.7,6.3,1.3,9.5c0,0,0,0.1,0,0.1
			c0.2,0.1,0.3,0.3,0.4,0.5c0.1,0.5-0.1,1.1-0.7,1.2c0,0-0.1,0-0.1,0c0.1,0.1,0.2,0.3,0.4,0.4l0,0l0,0c0.2,0.1,0.3,0.1,0.5,0.1
			C75.6,74.4,75.9,74.2,76.1,73.9z"/>
		<path class="st8" d="M91.2,82.3c-0.1,0.2,0,0.5,0.2,0.7c0.1,0,0.1,0.1,0.2,0.1c0,0,0,0,0.1,0c0.1,0,0.1,0,0.2,0c0,0,0,0,0.1,0
			c0.1,0,0.1-0.1,0.2-0.2c0.2-0.3,0.3-0.6,0.5-0.9c6.1-10.2,17.8-15.3,29-13.5c0,0-0.1,0-0.1-0.1l0,0l0,0c-0.6-0.4-1.3-0.8-1.9-1.2
			c-9.5-0.8-19,3.1-25.2,10.7C93.1,79.2,92.1,80.7,91.2,82.3z"/>
		<path class="st8" d="M99.3,88L99.3,88L99.3,88c0.2,0.1,0.3,0.1,0.5,0.1c0.4,0,0.7-0.2,0.9-0.5c0.2-0.3,0.4-0.6,0.5-0.8
			c0.2-0.3,0.3-0.5,0.5-0.8c0.3-0.5,0.2-1.1-0.2-1.4c-0.5-0.3-1.1-0.2-1.4,0.2c-0.2,0.3-0.4,0.6-0.6,1c-0.2,0.3-0.4,0.6-0.5,0.8
			C98.7,87.1,98.9,87.7,99.3,88z"/>
		<path class="st8" d="M105.9,79.2c-1.1,0.7-2.2,1.6-3.2,2.5c-0.4,0.4-0.4,1,0,1.4c0.2,0.2,0.5,0.3,0.7,0.3c0.2,0,0.5-0.1,0.7-0.3
			c0.9-0.8,1.9-1.6,2.9-2.3c0.5-0.3,0.6-0.9,0.3-1.4S106.4,78.9,105.9,79.2z"/>
		<path class="st8" d="M109.5,77.4c-0.5,0.2-0.8,0.8-0.6,1.3c0.2,0.4,0.5,0.6,0.9,0.6c0.1,0,0.2,0,0.4-0.1c1.1-0.4,2.3-0.8,3.5-1
			c0.5-0.1,0.9-0.6,0.8-1.2c-0.1-0.5-0.6-0.9-1.2-0.8C112.1,76.5,110.8,76.9,109.5,77.4z"/>
		<path class="st8" d="M132.9,86.5c0.2,0.3,0.5,0.5,0.8,0.5c0.2,0,0.4-0.1,0.5-0.2c0.5-0.3,0.6-0.9,0.3-1.4
			c-0.7-1.1-1.6-2.2-2.5-3.2c-0.4-0.4-1-0.4-1.4,0c-0.4,0.4-0.4,1,0,1.4C131.4,84.5,132.2,85.5,132.9,86.5z"/>
		<path class="st8" d="M124.6,79.5c0.6,0.2,1.1,0.5,1.7,0.8c0.5,0.3,1.1,0.6,1.6,1c0.2,0.1,0.4,0.2,0.6,0.2c0.3,0,0.6-0.2,0.8-0.4
			c0.3-0.5,0.2-1.1-0.3-1.4c-0.5-0.4-1.1-0.7-1.7-1.1c-0.6-0.3-1.2-0.6-1.8-0.9c-0.5-0.2-1.1,0-1.3,0.5S124.1,79.3,124.6,79.5z"/>
		<path class="st8" d="M117.5,75.9c-0.6,0-1,0.4-1,1c0,0.6,0.4,1,1,1c1.2,0,2.5,0.2,3.6,0.4c0.1,0,0.1,0,0.2,0c0.5,0,0.9-0.3,1-0.8
			c0.1-0.5-0.2-1.1-0.8-1.2C120.2,76.1,118.8,76,117.5,75.9z"/>
		<path class="st8" d="M136.3,101.8c0.1,0,0.1,0,0.2,0c0.5,0,0.9-0.3,1-0.8c0.3-1.3,0.4-2.7,0.4-4c0-0.6-0.4-1-1-1c-0.6,0-1,0.4-1,1
			c0,1.2-0.1,2.4-0.4,3.6C135.4,101.1,135.7,101.7,136.3,101.8z"/>
		<path class="st8" d="M135.6,93.3c0.1,0.5,0.5,0.8,1,0.8c0.1,0,0.1,0,0.2,0c0.5-0.1,0.8-0.5,0.8-1c0-0.2-0.1-0.4-0.1-0.6
			c-0.2-1.2-0.6-2.3-1-3.4c-0.2-0.5-0.8-0.8-1.3-0.6c-0.5,0.2-0.8,0.8-0.6,1.3C135,90.9,135.3,92.1,135.6,93.3z"/>
		<path class="st8" d="M133.9,107.2c0.2,0.1,0.3,0.1,0.5,0.1c0.4,0,0.7-0.2,0.9-0.5c0.2-0.3,0.3-0.6,0.5-0.9c0.2-0.3,0.3-0.7,0.5-1
			c0.2-0.5,0-1.1-0.5-1.3c-0.5-0.2-1.1,0-1.3,0.5c-0.1,0.3-0.3,0.6-0.4,0.8c-0.1,0.3-0.3,0.6-0.4,0.9
			C133.2,106.3,133.4,106.9,133.9,107.2z"/>
		<path class="st8" d="M107.5,92.5c-0.1-0.1-0.1-0.2-0.1-0.3c-0.1-0.5,0.2-1.1,0.7-1.2c0.5-0.1,1.1,0.1,1.2,0.7
			c0.1-0.1,0.1-0.2,0.2-0.3c2.7-3.9,8-5.1,12.2-2.8c2.2,1.2,3.8,3.2,4.5,5.6c0.6,2.1,0.5,4.3-0.4,6.2c-0.1,0.3-0.3,0.6-0.4,0.9
			c-0.3,0.5-0.1,1.1,0.4,1.4l0,0c0,0,0,0,0,0c0.2,0.1,0.3,0.1,0.5,0.1c0.4,0,0.7-0.2,0.9-0.5c0.2-0.3,0.3-0.6,0.4-0.9
			c1.1-2.4,1.3-5.2,0.6-7.8c-0.8-2.9-2.8-5.3-5.4-6.8c-5.2-2.9-11.7-1.3-15,3.6c-0.2,0.3-0.4,0.6-0.5,0.8
			C106.9,91.6,107.1,92.2,107.5,92.5z"/>
		<path class="st8" d="M92.8,135.1c-0.1-0.5,0.2-1,0.7-1.1l0,0l-9.3-32.7l-0.7-2.3c-0.1-0.3-0.3-0.5-0.5-0.6c0,0,0,0,0,0
			c-0.2-0.1-0.5-0.2-0.8-0.1L80,98.9l-14.6,4.2v2.1l16.5-4.7l9.9,34.7H92.8z"/>
		<path class="st8" d="M70.8,109.8l-4.2,1.2c-0.5,0.2-0.8,0.7-0.7,1.2c0.1,0.4,0.5,0.7,1,0.7c0.1,0,0.2,0,0.3,0l4.2-1.2
			c0.5-0.2,0.8-0.7,0.7-1.2C71.9,110,71.4,109.7,70.8,109.8z"/>
		<path class="st8" d="M78.7,110.7l-0.6-2c-0.1-0.3-0.2-0.5-0.5-0.6c-0.2-0.1-0.5-0.2-0.8-0.1l-2,0.6c-0.5,0.2-0.8,0.7-0.7,1.2
			c0.2,0.5,0.7,0.8,1.2,0.7l1-0.3l0.3,1c0.1,0.4,0.5,0.7,1,0.7c0.1,0,0.2,0,0.3,0C78.6,111.8,78.9,111.2,78.7,110.7z"/>
		<path class="st8" d="M79.2,119.6c0.1,0.4,0.5,0.7,1,0.7c0.1,0,0.2,0,0.3,0c0.5-0.2,0.8-0.7,0.7-1.2l-1.2-4.2
			c-0.2-0.5-0.7-0.8-1.2-0.7c-0.5,0.2-0.8,0.7-0.7,1.2L79.2,119.6z"/>
		<path class="st8" d="M81.6,127.9c0.1,0.4,0.5,0.7,1,0.7c0.1,0,0.2,0,0.3,0c0.5-0.2,0.8-0.7,0.7-1.2l-1.2-4.2
			c-0.2-0.5-0.7-0.8-1.2-0.7c-0.5,0.2-0.8,0.7-0.7,1.2L81.6,127.9z"/>
		<path class="st8" d="M83.3,134c0.1,0.4,0.5,0.7,1,0.7c0.1,0,0.2,0,0.3,0c0.5-0.2,0.8-0.7,0.7-1.2l-0.1-0.3l-0.5-1.7
			c-0.2-0.5-0.7-0.8-1.2-0.7c-0.5,0.1-0.7,0.6-0.7,1c0,0.1,0,0.2,0,0.2L83.3,134z"/>
		<path class="st8" d="M74.6,128.7c0,0,0.1,0,0.1,0c0.3-0.1,0.4-0.4,0.3-0.6l-0.2-0.7l-2.5-8.7c-0.1-0.3-0.4-0.4-0.6-0.3l-6.4,1.8v1
			l6.1-1.8l2.1,7.3l0.5,1.6C74.1,128.6,74.3,128.7,74.6,128.7z"/>
		<path class="st8" d="M93.5,134L93.5,134c-0.5,0.1-0.8,0.6-0.7,1.1h4.1l27.2-7.8c1.2-0.9,2.3-2,3.4-3.1l-1.3,0.4L93.5,134z"/>
		<path class="st8" d="M104.4,120c-2.2-1.2-4.9-0.4-6.1,1.7c-1.2,2.2-0.4,4.9,1.7,6.1c0.7,0.4,1.4,0.6,2.2,0.6
			c1.6,0,3.1-0.8,3.9-2.3C107.3,124,106.5,121.2,104.4,120z M105.3,125.6c-0.9,1.7-3.1,2.3-4.7,1.3c-1.7-0.9-2.3-3.1-1.3-4.7
			c0.6-1.1,1.8-1.8,3-1.8c0.6,0,1.2,0.1,1.7,0.4C105.6,121.8,106.2,123.9,105.3,125.6z"/>
		<path class="st8" d="M101.6,64.5c0.8,0.4,1.6,0.6,2.4,0.6c0.5,0,0.9-0.1,1.4-0.2c1.1-0.3,2-1,2.7-1.9c-0.8-0.1-1.6-0.3-2.5-0.4
			c-0.9,0.5-2,0.6-3,0.1c-0.1-0.1-0.3-0.2-0.4-0.3c-0.2,0-0.3,0-0.5,0h-2C100.1,63.3,100.8,64.1,101.6,64.5z"/>
		<path class="st8" d="M70.2,75.1c0.1,0,0.2,0,0.3,0c0.5-0.1,0.8-0.7,0.7-1.2c-0.1-0.5-0.7-0.8-1.2-0.7c-0.5,0.1-0.8,0.7-0.7,1.2
			C69.4,74.8,69.8,75.1,70.2,75.1z"/>
		<path class="st8" d="M66.3,76.2c0.1,0,0.2,0,0.3,0c0.5-0.2,0.8-0.7,0.7-1.2c-0.1-0.5-0.7-0.8-1.2-0.7c-0.3,0.1-0.6,0.4-0.7,0.7
			v0.6C65.5,75.9,65.9,76.2,66.3,76.2z"/>
		<path class="st8" d="M74.4,73.9C74.4,73.9,74.4,73.9,74.4,73.9c0.6-0.2,0.9-0.7,0.8-1.2c-0.1-0.2-0.2-0.4-0.4-0.5
			c-0.2-0.2-0.5-0.2-0.8-0.2c-0.5,0.1-0.8,0.7-0.7,1.2c0,0.1,0.1,0.2,0.2,0.3c0.2,0.2,0.4,0.4,0.7,0.4c0,0,0.1,0,0.1,0
			C74.2,73.9,74.3,73.9,74.4,73.9z"/>
		<path class="st8" d="M88.7,98.5c0.1,0,0.2,0,0.3,0c0.5-0.1,0.8-0.7,0.7-1.2c-0.1-0.5-0.7-0.8-1.2-0.7c-0.5,0.1-0.8,0.7-0.7,1.2
			C87.9,98.2,88.3,98.5,88.7,98.5z"/>
		<path class="st8" d="M92.6,97.4c0.1,0,0.2,0,0.3,0c0.5-0.1,0.8-0.7,0.7-1.2c-0.1-0.5-0.7-0.8-1.2-0.7c-0.5,0.1-0.8,0.7-0.7,1.2
			C91.8,97.1,92.2,97.4,92.6,97.4z"/>
		<path class="st8" d="M104.4,94c0.1,0,0.2,0,0.3,0c0.5-0.1,0.8-0.7,0.7-1.2c-0.1-0.5-0.7-0.8-1.2-0.7c-0.5,0.1-0.8,0.7-0.7,1.2
			C103.5,93.8,103.9,94,104.4,94z"/>
		<path class="st8" d="M96.5,96.3c0.1,0,0.2,0,0.3,0c0.5-0.2,0.8-0.7,0.7-1.2c-0.1-0.5-0.7-0.8-1.2-0.7c-0.5,0.1-0.8,0.7-0.7,1.2
			C95.7,96,96.1,96.3,96.5,96.3z"/>
		<path class="st8" d="M100.5,95.2c0.1,0,0.2,0,0.3,0c0.5-0.1,0.8-0.7,0.7-1.2c-0.2-0.5-0.7-0.8-1.2-0.7c-0.5,0.2-0.8,0.7-0.7,1.2
			C99.6,94.9,100,95.2,100.5,95.2z"/>
		<path class="st8" d="M108.6,92.9c0.5-0.2,0.8-0.7,0.7-1.2c0,0,0,0,0,0c-0.2-0.5-0.7-0.8-1.2-0.7c-0.5,0.2-0.8,0.7-0.7,1.2
			c0,0.1,0.1,0.2,0.1,0.3c0,0,0,0,0,0c0.2,0.2,0.4,0.4,0.7,0.4c0,0,0.1,0,0.1,0C108.4,92.9,108.5,92.9,108.6,92.9z"/>
		<path class="st8" d="M84.8,99.6c0.1,0,0.2,0,0.3,0c0.1,0,0.1,0,0.1-0.1c0.4-0.2,0.7-0.7,0.6-1.2c-0.1-0.5-0.7-0.8-1.2-0.7
			c-0.5,0.1-0.8,0.6-0.7,1.1c0,0.1,0,0.1,0,0.2C83.9,99.3,84.3,99.6,84.8,99.6z"/>
		<path class="st8" d="M122.7,117.5c0.1,0,0.2,0,0.3,0c0.5-0.1,0.8-0.7,0.7-1.2c-0.1-0.5-0.7-0.8-1.2-0.7c-0.5,0.1-0.8,0.7-0.7,1.2
			C121.9,117.2,122.3,117.5,122.7,117.5z"/>
		<path class="st8" d="M126.7,116.3c0.1,0,0.2,0,0.3,0c0.5-0.1,0.8-0.7,0.7-1.2c-0.2-0.5-0.7-0.8-1.2-0.7c-0.5,0.1-0.8,0.7-0.7,1.2
			C125.8,116,126.2,116.3,126.7,116.3z"/>
		<path class="st8" d="M134.2,112.1c-0.5,0.1-0.8,0.7-0.7,1.2c0.1,0.4,0.5,0.7,1,0.7c0,0,0.1,0,0.1,0c0.2-0.5,0.5-1,0.7-1.6
			C135.1,112.2,134.6,112,134.2,112.1z"/>
		<path class="st8" d="M130.6,115.2c0.1,0,0.2,0,0.3,0c0.5-0.1,0.8-0.7,0.7-1.2c-0.1-0.5-0.7-0.8-1.2-0.7c-0.5,0.2-0.8,0.7-0.7,1.2
			C129.7,114.9,130.1,115.2,130.6,115.2z"/>
		<path class="st8" d="M118.8,118.6c0.1,0,0.2,0,0.3,0c0.1,0,0.1,0,0.1-0.1c0.4-0.2,0.7-0.7,0.6-1.2c-0.1-0.5-0.7-0.8-1.2-0.7
			c-0.5,0.1-0.8,0.6-0.7,1.1c0,0.1,0,0.1,0,0.1C118,118.3,118.4,118.6,118.8,118.6z"/>
		<path class="st8" d="M80.5,146.6c-0.2,0.4-0.1,1,0.3,1.3v-1.6C80.7,146.4,80.6,146.5,80.5,146.6z"/>
		<path class="st8" d="M74.2,144.2c0.4,0,0.7-0.2,0.9-0.5c0.3-0.5,0.1-1.1-0.4-1.4c-0.5-0.3-1.1-0.1-1.4,0.4
			c-0.3,0.5-0.1,1.1,0.4,1.4C73.9,144.1,74.1,144.2,74.2,144.2z"/>
		<path class="st8" d="M77.8,146.1c0.4,0,0.7-0.2,0.9-0.5c0.3-0.5,0.1-1.1-0.4-1.4c-0.5-0.3-1.1-0.1-1.4,0.4
			c-0.3,0.5-0.1,1.1,0.4,1.4C77.5,146.1,77.6,146.1,77.8,146.1z"/>
		<path class="st8" d="M70.7,142.2c0.4,0,0.7-0.2,0.9-0.5c0.3-0.5,0.1-1.1-0.4-1.4s-1.1-0.1-1.4,0.4c-0.3,0.5-0.1,1.1,0.4,1.4
			C70.3,142.1,70.5,142.2,70.7,142.2z"/>
		<path class="st8" d="M67.1,140.2c0.4,0,0.7-0.2,0.9-0.5c0.3-0.5,0.1-1.1-0.4-1.4s-1.1-0.1-1.4,0.4c-0.3,0.5-0.1,1.1,0.4,1.4
			C66.8,140.2,67,140.2,67.1,140.2z"/>
		<path class="st8" d="M65.4,153.5c5.1-0.8,10.4-0.3,15.4,1.8v-1.1c-5-2-10.3-2.5-15.4-1.7V153.5z"/>
		<path class="st8" d="M66.2,161.3c-0.3,0.1-0.6,0.1-0.9,0.2v2.1c0.4-0.1,0.8-0.2,1.2-0.3c0.5-0.1,0.9-0.6,0.8-1.2
			C67.3,161.6,66.8,161.2,66.2,161.3z"/>
		<path class="st8" d="M80.8,164.1c-0.3-0.2-0.5-0.3-0.8-0.5c-0.6-0.3-1.2-0.6-1.8-0.9c-0.5-0.2-1.1,0-1.3,0.5
			c-0.2,0.5,0,1.1,0.5,1.3c0.6,0.2,1.1,0.5,1.7,0.8c0.3,0.2,0.6,0.4,0.9,0.6h0.8V164.1z"/>
		<path class="st8" d="M73.9,163.4c0.1,0,0.1,0,0.2,0c0.5,0,0.9-0.3,1-0.8c0.1-0.5-0.2-1.1-0.8-1.2c-1.3-0.3-2.7-0.4-4-0.5
			c-0.5,0-1,0.4-1,1c0,0.6,0.4,1,1,1C71.5,163,72.7,163.1,73.9,163.4z"/>
	</g>
	<path class="st9" d="M113.1,81.3L113.1,81.3L113.1,81.3c-3.3-2.1-7.2-3.4-11.4-3.4h-5.5H80.8v21.2v66.8h15.4v-46.2h5.5
		c4.2,0,8.1-1.2,11.4-3.4c5.7-3.7,9.5-10.2,9.5-17.5C122.6,91.5,118.8,85,113.1,81.3z"/>
	<g>
		<path class="st10" d="M100.6,96.2c0.2,0,1,0,2,0l0-2c-0.3,0-0.5,0-0.7,0c0-0.1,0-0.2,0.1-0.3c0.4-0.1,0.9-0.2,1.3-0.2
			c0.1,0,0.2-0.1,0.3-0.1c0,0,0.1,0,0.1,0c0.1,0,0.2,0,0.2,0c0.9-0.2,1.7-0.5,2.2-0.8c0.3-0.2,0.5-0.5,0.5-0.9c0-0.3,0-1.1,0-2
			c0-0.6-0.4-1-1-1c-0.6,0-1,0.4-1,1c0,0.5,0,1,0,1.4c-0.3,0.1-0.6,0.2-1.2,0.4c-0.1,0-0.2,0.1-0.3,0.1c-0.1,0-0.2,0-0.3,0
			c-0.6,0.1-1.3,0.2-1.9,0.3c-0.4,0.1-0.8,0.4-0.9,0.8l-0.1,0.5c-0.1,0.6-0.2,1.1-0.3,1.6c-0.1,0.3-0.1,0.6,0.1,0.9
			C100,96,100.3,96.2,100.6,96.2z"/>
		<path class="st10" d="M104.8,79.2c0,0.6,0.4,1,1,1s1-0.4,1-1v-0.6c0,0,0,0,0,0c-0.7-0.2-1.3-0.3-2-0.4c0,0.2,0,0.3,0,0.4V79.2z"/>
		<path class="st10" d="M105.7,87.2C105.7,87.2,105.7,87.2,105.7,87.2c0.6,0,1-0.4,1-1c0-0.7,0-1.4,0-1.9v-1.6c0-0.6-0.4-1-1-1
			s-1,0.4-1,1v1.6c0,0.6,0,1.2,0,1.9C104.7,86.8,105.2,87.2,105.7,87.2z"/>
		<path class="st10" d="M119,102c0.2-0.5-0.1-1.1-0.7-1.2c-0.4-0.1-0.9-0.2-1.4-0.2c-1.4,0-2.6,0.5-3.4,1.4c-0.4,0.4-0.3,1,0.1,1.4
			c0.2,0.2,0.4,0.3,0.7,0.3c0.3,0,0.5-0.1,0.7-0.3c0.4-0.5,1.1-0.7,1.9-0.7c0.3,0,0.6,0,0.8,0.1C118.3,102.8,118.8,102.5,119,102z"
			/>
		<path class="st10" d="M116.8,108.4c-1.2-0.5-1.9-1.3-2.3-2.2c-0.2-0.5-0.8-0.8-1.3-0.6c-0.5,0.2-0.8,0.8-0.6,1.3
			c0.5,1.5,1.7,2.7,3.4,3.4c0.1,0.1,0.3,0.1,0.4,0.1c0.4,0,0.8-0.2,0.9-0.6C117.6,109.2,117.3,108.6,116.8,108.4z"/>
		<path class="st10" d="M119.8,109.3c-0.1,0.1-0.2,0.3-0.3,0.5C119.6,109.6,119.7,109.4,119.8,109.3z"/>
		<path class="st10" d="M120.9,106.3c0.1-0.4,0.2-0.9,0.2-1.3c0-0.6-0.4-1-0.9-1.1c-0.6-0.1-1,0.4-1.1,0.9c0,0.4-0.2,1.1-0.4,1.7
			c-0.2,0.4,0,0.9,0.3,1.2c0.4,0.3,0.8,0.5,1.3,0.6c0.3-0.6,0.6-1.3,0.9-2C121.1,106.3,121,106.3,120.9,106.3z"/>
		<path class="st10" d="M111.4,80.8c0.2,0,0.4-0.1,0.6-0.2c-0.5-0.3-1-0.6-1.6-0.8v0C110.4,80.4,110.9,80.8,111.4,80.8z"/>
		<path class="st10" d="M111.4,87.4C111.4,87.4,111.5,87.4,111.4,87.4c0.6,0,1-0.5,1-1c0-0.7,0-1.4,0-2.1v-1.2c0-0.6-0.4-1-1-1
			s-1,0.4-1,1v1.2c0,0.7,0,1.4,0,2.1C110.4,87,110.9,87.4,111.4,87.4z"/>
		<path class="st10" d="M111.5,88.7c-0.6,0-1,0.5-1,1c0,0.8,0,1.4,0.1,2c0,0.3,0.2,0.7,0.5,0.8c0.5,0.3,1.2,0.6,2.2,0.8
			c0.1,0,0.2,0,0.2,0c0,0,0,0,0.1,0c0.1,0,0.2,0.1,0.2,0.1c0.4,0.1,0.9,0.2,1.4,0.3c0,0.1,0,0.2,0.1,0.3c-0.2,0-0.5,0-0.7,0
			c0,0,0,0,0,0c-0.5,0-1,0.4-1,1c0,0.6,0.4,1,1,1c1,0,1.8,0,2.1,0c0.3,0,0.6-0.2,0.8-0.4c0.2-0.3,0.2-0.6,0.1-0.9
			c-0.2-0.5-0.2-1-0.3-1.6l-0.1-0.5c-0.1-0.4-0.4-0.8-0.9-0.8c-0.6-0.1-1.3-0.2-1.9-0.3c-0.1,0-0.2,0-0.3,0c-0.1,0-0.1-0.1-0.2-0.1
			c-0.5-0.1-0.9-0.2-1.2-0.4c0-0.4,0-0.9,0-1.4C112.5,89.2,112,88.7,111.5,88.7z"/>
		<path class="st10" d="M110.5,94.1c-0.8,0-1.5,0-2,0c-0.5,0-1.2,0-1.9,0c-0.6,0-1,0.5-1,1c0,0.6,0.4,1,1,1c0.7,0,1.4,0,1.9,0
			c0.6,0,1.3,0,2,0c0,0,0,0,0,0c0.5,0,1-0.4,1-1C111.5,94.5,111.1,94.1,110.5,94.1z"/>
		<path class="st10" d="M80.8,158.4C80.8,158.4,80.8,158.4,80.8,158.4l-0.1,2.2c0.2-0.1,0.4-0.2,0.7-0.2c0.5-0.2,0.8-0.7,0.7-1.2
			C81.9,158.5,81.4,158.2,80.8,158.4z"/>
		<path class="st10" d="M93.2,160.9c-0.4-0.4-1-0.5-1.4-0.1c-0.4,0.4-0.5,1-0.1,1.4c0.7,0.9,1.3,2,1.7,3.2c0.1,0.2,0.2,0.4,0.3,0.5
			H95c0.3-0.3,0.4-0.7,0.3-1.1C94.8,163.3,94.1,162,93.2,160.9z"/>
		<path class="st10" d="M95.5,155.2c-1.2-0.8-2.6-1.4-4-1.8c-0.5-0.1-1.1,0.2-1.2,0.7c-0.1,0.5,0.2,1.1,0.7,1.2
			c1.2,0.3,2.4,0.8,3.4,1.5c0.2,0.1,0.4,0.2,0.5,0.2c0.3,0,0.7-0.2,0.8-0.5C96.1,156.2,96,155.5,95.5,155.2z"/>
		<path class="st10" d="M89.5,158.3c-1.3-0.5-2.9-0.7-4.4-0.6c-0.6,0-1,0.5-1,1c0,0.6,0.5,1,1,1c1.3-0.1,2.5,0.1,3.6,0.5
			c0.1,0,0.2,0.1,0.4,0.1c0.4,0,0.8-0.2,0.9-0.6C90.3,159.1,90,158.5,89.5,158.3z"/>
		<path class="st10" d="M88.2,153.9c0-0.6-0.5-1-1-1c-1.2,0-2.6,0.4-4.3,1.1c-0.5,0.2-0.7,0.8-0.5,1.3c0.2,0.4,0.5,0.6,0.9,0.6
			c0.1,0,0.3,0,0.4-0.1c1.4-0.6,2.7-0.9,3.5-1C87.8,154.9,88.3,154.5,88.2,153.9z"/>
		<path class="st10" d="M90.5,87c-0.5-0.2-1.1,0-1.3,0.5c-0.2,0.5,0,1.1,0.5,1.3c0.1,0.1,0.3,0.1,0.4,0.1c0.4,0,0.8-0.2,0.9-0.6
			C91.2,87.8,91,87.2,90.5,87z"/>
		<path class="st10" d="M81.7,92.2C81.7,92.2,81.7,92.2,81.7,92.2c0.6,0,1-0.5,1-1c0-0.5-0.5-1-1-1c-0.4,0-0.7,0.2-0.9,0.6v0.9
			C80.9,91.9,81.3,92.2,81.7,92.2z"/>
		<path class="st10" d="M83.3,89.1c0.1,0,0.2,0,0.3-0.1c0.5-0.2,0.8-0.8,0.6-1.3c-0.2-0.5-0.8-0.8-1.3-0.6c-0.5,0.2-0.8,0.8-0.6,1.3
			C82.5,88.8,82.9,89.1,83.3,89.1z"/>
		<path class="st10" d="M84.1,85.5C84.1,85.5,84.1,85.5,84.1,85.5c0.6,0,1-0.4,1-1c0-0.5-0.4-1-1-1c-0.5,0-1,0.4-1,1
			C83.1,85,83.5,85.5,84.1,85.5z"/>
		<path class="st10" d="M84.8,91.1c0,0.6,0.4,1,1,1c0,0,0,0,0,0c0.6,0,1-0.5,1-1c0-0.5-0.5-1-1-1C85.2,90.1,84.7,90.6,84.8,91.1z"/>
		<path class="st10" d="M84.1,81.4c0.6,0,1-0.5,1-1c0-0.6-0.4-1-1-1c-0.5,0-1,0.4-1,1C83.1,81,83.6,81.4,84.1,81.4z"/>
		<path class="st10" d="M89.8,82.9c-0.6,0-1,0.5-1,1c0,0.5,0.5,1,1,1h0c0.6,0,1-0.5,1-1C90.8,83.3,90.4,82.9,89.8,82.9z"/>
		<path class="st10" d="M89.9,90.1c-0.6,0-1,0.4-1,1c0,0.6,0.4,1,1,1c0,0,0,0,0,0c0.5,0,1-0.4,1-1C90.8,90.6,90.4,90.1,89.9,90.1z"
			/>
		<path class="st10" d="M93.9,89.9c0,0,0.1,0,0.1,0c0.5,0,0.9-0.4,1-0.9c0.1-0.5-0.3-1-0.8-1.1c-0.6-0.1-1.1,0.3-1.1,0.8
			C92.9,89.3,93.3,89.8,93.9,89.9z"/>
		<path class="st10" d="M89.8,80.8c0.6,0,1-0.4,1-1c0-0.6-0.4-1-1-1c-0.5,0-1,0.4-1,1C88.8,80.4,89.2,80.8,89.8,80.8z"/>
		<path class="st10" d="M93.9,92.2C93.9,92.2,93.9,92.2,93.9,92.2c0.5,0,1-0.4,1-1c0-0.5-0.4-1-1-1c-0.6,0-1,0.4-1,1
			C92.9,91.7,93.3,92.2,93.9,92.2z"/>
		<path class="st10" d="M80.8,142.7v1.6c2.7,3,6.6,4.8,11.1,4.8c1.5,0,3-0.2,4.3-0.6v-1.1c-1.3,0.4-2.8,0.6-4.3,0.6
			C87.3,148.1,83.3,146,80.8,142.7z"/>
		<path class="st10" d="M83.3,132.3c0,4.2,0.9,14,8.8,14c1.4,0,2.8-0.4,4.1-1.2v-1.2c-1.3,1-2.7,1.5-4.1,1.5c-5,0-7.8-4.6-7.8-13
			c0-7.4,2.8-11.7,7.6-11.7c1.7,0,3.1,0.4,4.3,1.3v-1.2c-1.3-0.7-2.7-1.1-4.3-1.1C86.5,119.6,83.3,124.3,83.3,132.3z"/>
		<path class="st10" d="M105.1,98.1c-0.1-0.1-0.2-0.2-0.3-0.3c-0.1,0-0.3,0-0.4,0c-2.9,1.8-6,3.6-9,5.3c-3.6-2.8-7.7-4.8-12.2-6
			c-0.1,0-0.3,0-0.4,0.1c-0.1,0.1-0.2,0.2-0.2,0.3c-0.1,0.3-0.4,0.8-0.7,1.3c-0.1,0.1-0.1,0.3-0.1,0.4c0,0.1,0.2,0.3,0.3,0.3
			c3,1.2,6.4,3.5,9,6.1c-2.2,1.2-4.4,2.5-6.6,3.7c-0.1,0.1-0.2,0.2-0.3,0.3c0,0.1,0,0.3,0.1,0.4c0.6,0.7,0.9,1.4,1.3,2.1l0.2,0.4
			c0.1,0.1,0.2,0.2,0.3,0.3c0.1,0,0.3,0,0.4-0.1l1.4-0.8c1.9-1.1,3.8-2.3,5.8-3.4c2.3,2.8,4.1,6.4,4.8,9.6c-0.4-0.1-0.9-0.2-1.5-0.4
			c-1.8-0.5-3.8-1-4.8-1c-4.1,0-8.3,1.7-11.3,4.9v1.6c2.4-3.3,6.2-5.5,11.3-5.5c0.9,0,3,0.5,4.6,1c0.9,0.2,1.7,0.5,2.3,0.6
			c0.2,0,0.3,0,0.4-0.1c0.1-0.1,0.2-0.3,0.1-0.4c-0.6-3.7-2.6-7.9-5.4-11.1c-0.2-0.2-0.4-0.2-0.6-0.1c-2.1,1.2-4.2,2.5-6.2,3.7
			l-0.9,0.6c-0.3-0.6-0.6-1.2-1-1.8c2.2-1.2,4.5-2.5,6.6-3.7c0.1-0.1,0.2-0.2,0.2-0.4s0-0.3-0.1-0.4c-2.6-2.7-6-5.1-9.2-6.5
			c0.1-0.2,0.3-0.5,0.3-0.6c4.3,1.2,8.2,3.2,11.7,5.9c0.2,0.1,0.4,0.1,0.6,0c3-1.7,5.9-3.5,8.8-5.2c0.3,0.6,0.6,1.1,1,1.8l-8,4.6
			c-0.1,0.1-0.2,0.2-0.2,0.4c0,0.2,0,0.3,0.2,0.4c3.9,3.6,6.7,8.2,8.2,13.2c0.3-0.1,0.7-0.1,1-0.2c-1.5-5-4.2-9.6-8-13.3l7.9-4.5
			c0.1-0.1,0.2-0.2,0.2-0.3c0-0.1,0-0.3-0.1-0.4C105.9,99.7,105.4,98.9,105.1,98.1z"/>
	</g>
	<g>
		<path d="M42.5,181.4c2.1,0,4,0.4,5.7,1.1c1.7,0.7,3.1,1.7,4.2,2.9c1.1,1.2,2,2.6,2.6,4.1c0.6,1.5,0.9,3.1,0.9,4.7
			s-0.3,3.2-0.9,4.7c-0.6,1.5-1.5,2.9-2.6,4.1c-1.1,1.2-2.5,2.2-4.2,2.9c-1.7,0.7-3.6,1.1-5.7,1.1h-8v-25.8H42.5z M37.9,184.5v19.7
			h4.6c1.6,0,3-0.3,4.2-0.8c1.2-0.6,2.3-1.3,3.1-2.2c0.8-0.9,1.5-2,1.9-3.1s0.7-2.4,0.7-3.6s-0.2-2.5-0.7-3.6s-1.1-2.2-1.9-3.1
			c-0.8-0.9-1.9-1.7-3.1-2.2c-1.2-0.6-2.6-0.8-4.2-0.8H37.9z"/>
		<path d="M67.1,198.9h-8.6V196h8.6V198.9z"/>
		<path d="M71.1,181.4h9.1c1.3,0,2.6,0.2,3.6,0.7c1.1,0.5,2,1.1,2.8,1.9s1.4,1.7,1.8,2.8c0.4,1.1,0.6,2.2,0.6,3.4
			c0,1.2-0.2,2.3-0.6,3.4c-0.4,1.1-1,2-1.8,2.8s-1.7,1.4-2.8,1.9c-1.1,0.5-2.3,0.7-3.6,0.7h-5.7v8.2h-3.4V181.4z M80.1,195.9
			c0.8,0,1.6-0.2,2.3-0.5c0.7-0.3,1.3-0.7,1.7-1.2c0.5-0.5,0.8-1.1,1.1-1.8c0.3-0.7,0.4-1.4,0.4-2.2c0-0.8-0.1-1.5-0.4-2.2
			c-0.3-0.7-0.6-1.3-1.1-1.8c-0.5-0.5-1.1-0.9-1.7-1.3c-0.7-0.3-1.4-0.5-2.3-0.5h-5.7v11.5H80.1z"/>
		<path d="M104.6,204.2v3H92.8v-25.8h3.4v22.8H104.6z"/>
		<path d="M123.6,207.2l-1.4-3.9h-10.5l-1.3,3.9H107l8.9-25.8h2.4l8.9,25.8H123.6z M117.1,186.9l-4.2,13.3h8.4L117.1,186.9z"/>
		<path d="M152.6,199.3c-0.3,1.2-0.8,2.3-1.6,3.4c-0.7,1-1.6,1.9-2.7,2.7c-1,0.8-2.2,1.4-3.6,1.8s-2.8,0.7-4.3,0.7
			c-2.1,0-4-0.4-5.7-1.1c-1.7-0.7-3.1-1.7-4.3-2.9c-1.2-1.2-2.1-2.7-2.7-4.3c-0.6-1.6-0.9-3.4-0.9-5.2c0-1.7,0.3-3.4,0.9-5
			c0.6-1.6,1.5-3,2.6-4.3c1.1-1.2,2.5-2.2,4.1-3c1.6-0.7,3.4-1.1,5.4-1.1c1.9,0,3.5,0.3,5,0.8c1.4,0.5,2.7,1.2,3.7,2
			c1,0.9,1.9,1.9,2.5,3c0.6,1.2,1.1,2.4,1.3,3.8H149c-0.2-0.9-0.5-1.8-1-2.6c-0.5-0.8-1.1-1.5-1.8-2.1s-1.6-1-2.6-1.4
			c-1-0.3-2.1-0.5-3.3-0.5c-1.6,0-3,0.3-4.3,0.9s-2.3,1.4-3.1,2.3c-0.8,1-1.5,2.1-2,3.3c-0.5,1.3-0.7,2.6-0.7,3.9
			c0,1.4,0.2,2.8,0.7,4c0.5,1.3,1.1,2.4,2,3.3c0.9,1,2,1.7,3.3,2.3c1.3,0.6,2.8,0.8,4.5,0.8c0.9,0,1.7-0.1,2.6-0.4s1.6-0.7,2.3-1.1
			c0.7-0.5,1.3-1.1,1.9-1.7c0.5-0.7,0.9-1.4,1.2-2.2H152.6z"/>
		<path d="M160.2,184.5v8.4h11.1v3h-11.1v8.3h11.1v3h-14.5v-25.8h14.5v3H160.2z"/>
	</g>
</g>
</svg>
